<svg width="639" height="536" viewBox="0 0 639 536" fill="none" xmlns="http://www.w3.org/2000/svg">
<path d="M639 528.462C639 528.664 496.013 528.837 319.514 528.837C143.015 528.837 0 528.721 0 528.462C0 528.202 142.987 528.086 319.514 528.086C496.041 528.086 639 528.26 639 528.462Z" fill="#263238"/>
<path d="M605 96H402V237H605V96Z" fill="white"/>
<path d="M604.582 236.827C604.582 236.827 604.582 235.947 604.582 234.275V226.877C604.582 220.388 604.582 210.856 604.499 198.671C604.499 174.287 604.415 139.26 604.345 96.5624L604.638 96.8508L402.306 96.9373L402.669 96.5624C402.669 146.528 402.669 194.042 402.669 236.827L402.334 236.481L548.118 236.654L589.763 236.74H600.836H603.705H600.919H589.902L548.327 236.827L402.334 237H402V236.654C402 193.869 402 146.355 402 96.3893V96H402.376L604.708 96.0865H605V96.3893C605 139.174 604.889 174.258 604.847 198.671C604.847 210.842 604.847 220.301 604.777 226.819C604.777 230.035 604.777 232.501 604.777 234.174C604.777 235.846 604.582 236.827 604.582 236.827Z" fill="#B0BEC5"/>
<path d="M402 108.5C402 108.212 447.45 108 503.5 108C559.55 108 605 108.212 605 108.5C605 108.788 559.564 109 503.5 109C447.436 109 402 108.865 402 108.5Z" fill="#B0BEC5"/>
<g opacity="0.3">
<path d="M410.623 102.293C410.623 102.627 410.527 102.954 410.348 103.232C410.169 103.51 409.915 103.726 409.617 103.854C409.32 103.981 408.992 104.014 408.677 103.947C408.361 103.881 408.072 103.719 407.845 103.481C407.619 103.244 407.465 102.942 407.404 102.613C407.343 102.285 407.377 101.945 407.502 101.637C407.627 101.329 407.838 101.066 408.107 100.882C408.376 100.699 408.691 100.602 409.013 100.605C409.225 100.605 409.436 100.649 409.632 100.734C409.829 100.819 410.007 100.943 410.156 101.1C410.306 101.257 410.424 101.443 410.505 101.648C410.585 101.853 410.625 102.072 410.623 102.293Z" fill="#B0BEC5"/>
</g>
<g opacity="0.3">
<path d="M416.162 102.293C416.162 102.627 416.067 102.954 415.887 103.232C415.708 103.51 415.454 103.726 415.156 103.854C414.859 103.981 414.531 104.014 414.216 103.947C413.9 103.881 413.611 103.719 413.385 103.481C413.158 103.244 413.004 102.942 412.943 102.613C412.882 102.285 412.916 101.945 413.041 101.637C413.166 101.329 413.377 101.066 413.646 100.882C413.915 100.699 414.23 100.602 414.552 100.605C414.764 100.605 414.975 100.649 415.171 100.734C415.368 100.819 415.546 100.943 415.695 101.1C415.845 101.257 415.963 101.443 416.044 101.648C416.124 101.853 416.164 102.072 416.162 102.293Z" fill="#B0BEC5"/>
</g>
<g opacity="0.3">
<path d="M421.618 102.293C421.618 102.627 421.522 102.954 421.343 103.232C421.164 103.51 420.91 103.726 420.612 103.854C420.314 103.981 419.987 104.014 419.672 103.947C419.356 103.881 419.067 103.719 418.84 103.481C418.614 103.244 418.46 102.942 418.399 102.613C418.338 102.285 418.372 101.945 418.497 101.637C418.622 101.329 418.832 101.066 419.101 100.882C419.37 100.699 419.686 100.602 420.008 100.605C420.22 100.605 420.431 100.649 420.627 100.734C420.823 100.819 421.001 100.943 421.151 101.1C421.301 101.257 421.419 101.443 421.499 101.648C421.579 101.853 421.62 102.072 421.618 102.293Z" fill="#B0BEC5"/>
</g>
<path d="M474 123H420V179H474V123Z" fill="#B0BEC5"/>
<path d="M576 139.5C576 139.788 555.174 140 529.5 140C503.826 140 483 139.788 483 139.5C483 139.212 503.826 139 529.5 139C555.174 139 576 139.231 576 139.5Z" fill="#B0BEC5"/>
<path d="M576 160C576 160.538 555.174 161 529.5 161C503.826 161 483 160.538 483 160C483 159.462 503.826 159 529.5 159C555.174 159 576 159.423 576 160Z" fill="#B0BEC5"/>
<path d="M539 169.5C538.272 169.656 537.534 169.721 536.797 169.692L530.792 169.846C525.726 169.942 518.724 170 511.007 170C503.29 170 496.274 170 491.208 169.846L485.203 169.692C484.466 169.721 483.728 169.656 483 169.5C483.728 169.344 484.466 169.279 485.203 169.308L491.208 169.154C496.274 169.058 503.276 169 511.007 169C518.738 169 525.726 169 530.792 169.154L536.797 169.308C537.534 169.279 538.272 169.344 539 169.5Z" fill="#B0BEC5"/>
<g opacity="0.3">
<path d="M448.647 198.004H423.367V224.276H448.647V198.004Z" fill="#B0BEC5"/>
</g>
<path d="M495 197H469V224H495V197Z" fill="#B0BEC5"/>
<path d="M540 197H515V224H540V197Z" fill="#B0BEC5"/>
<path d="M586 197H560V224H586V197Z" fill="#B0BEC5"/>
<g opacity="0.3">
<path d="M473.801 123.241H420.008V179.147H473.801V123.241Z" fill="white"/>
</g>
<g opacity="0.3">
<path d="M494.5 198.004H469.22V224.276H494.5V198.004Z" fill="white"/>
</g>
<g opacity="0.3">
<path d="M540.353 198.004H515.073V224.276H540.353V198.004Z" fill="white"/>
</g>
<g opacity="0.3">
<path d="M586.206 198.004H560.926V224.276H586.206V198.004Z" fill="white"/>
</g>
<path d="M213 147H34V222H213V147Z" fill="white"/>
<path d="M212.807 222.869C212.807 222.869 212.807 222.402 212.807 221.499C212.807 220.595 212.807 219.269 212.807 217.52C212.807 214.022 212.807 208.891 212.807 202.274C212.807 189.055 212.807 169.918 212.697 146.248L212.89 146.452L34.3862 146.539L34.6759 146.248C34.6759 173.08 34.6759 198.98 34.6759 222.869L34.4 222.577L162.391 222.709L199.524 222.796H209.469H212.034H209.524H199.648L162.584 222.869L34.4 223H34V146H34.2897L212.793 146.102H213V146.306C213 170.034 212.917 189.2 212.89 202.464C212.89 209.052 212.89 214.124 212.89 217.666C212.89 219.385 212.89 220.697 212.89 221.601C212.89 222.504 212.807 222.869 212.807 222.869Z" fill="#B0BEC5"/>
<g opacity="0.3">
<path d="M41.5219 152.298C41.5219 152.566 41.4453 152.828 41.3019 153.051C41.1585 153.274 40.9547 153.448 40.7163 153.551C40.4779 153.654 40.2155 153.68 39.9623 153.628C39.7092 153.576 39.4767 153.447 39.2942 153.257C39.1117 153.067 38.9874 152.826 38.9371 152.563C38.8867 152.299 38.9126 152.027 39.0113 151.779C39.1101 151.531 39.2773 151.319 39.4919 151.17C39.7065 151.021 39.9588 150.942 40.2169 150.942C40.563 150.942 40.8949 151.085 41.1397 151.339C41.3844 151.593 41.5219 151.938 41.5219 152.298Z" fill="#B0BEC5"/>
</g>
<g opacity="0.3">
<path d="M46.0197 152.298C46.0197 152.566 45.9432 152.828 45.7998 153.051C45.6564 153.274 45.4526 153.448 45.2141 153.551C44.9757 153.654 44.7133 153.68 44.4602 153.628C44.207 153.576 43.9745 153.447 43.792 153.257C43.6095 153.067 43.4852 152.826 43.4349 152.563C43.3845 152.299 43.4104 152.027 43.5092 151.779C43.6079 151.531 43.7752 151.319 43.9898 151.17C44.2044 151.021 44.4567 150.942 44.7148 150.942C45.0608 150.942 45.3928 151.085 45.6375 151.339C45.8822 151.593 46.0197 151.938 46.0197 152.298Z" fill="#B0BEC5"/>
</g>
<g opacity="0.3">
<path d="M50.3926 152.298C50.3926 152.566 50.3161 152.828 50.1727 153.051C50.0293 153.274 49.8255 153.448 49.5871 153.551C49.3486 153.654 49.0863 153.68 48.8331 153.628C48.58 153.576 48.3475 153.447 48.165 153.257C47.9825 153.067 47.8582 152.826 47.8078 152.563C47.7575 152.299 47.7833 152.027 47.8821 151.779C47.9809 151.531 48.1481 151.319 48.3627 151.17C48.5773 151.021 48.8296 150.942 49.0877 150.942C49.4338 150.942 49.7657 151.085 50.0104 151.339C50.2551 151.593 50.3926 151.938 50.3926 152.298Z" fill="#B0BEC5"/>
</g>
<path d="M92 169H49V215H92V169Z" fill="#B0BEC5"/>
<path d="M201 190.512C201 190.78 178.609 191 151 191C123.391 191 101 190.78 101 190.512C101 190.244 123.391 190 151 190C178.609 190 201 190.244 201 190.512Z" fill="#B0BEC5"/>
<g opacity="0.3">
<path d="M92.4836 169.192H49.0877V214.292H92.4836V169.192Z" fill="#F5F5F5"/>
</g>
<path d="M345.502 51.3356C342.489 49.2436 338.352 50.5132 335.34 52.6052C332.327 54.6971 329.787 57.5537 326.386 58.9099C320.055 61.4635 311.74 58.4338 306.826 63.2381C303.702 66.3255 303.383 71.404 300.995 75.1406C296.969 81.431 287.307 83.797 286.488 91.2992C286.002 95.6274 289.334 99.8691 293.429 101.095C295.498 101.6 297.647 101.637 299.73 101.204C301.814 100.771 303.784 99.8777 305.507 98.585C309.671 95.6996 312.878 91.3714 317.57 89.7267C322.263 88.0819 328.301 89.4525 332.091 85.9755C335.881 82.4986 335.312 76.0784 338.033 71.6348C339.669 69.4015 341.61 67.4282 343.794 65.7773C345.835 63.945 347.778 61.6799 348.125 58.8955C348.472 56.111 347.376 51.3644 345.529 51.2634" fill="#F5F5F5"/>
<path d="M267.275 357.844C267.455 357.743 268.011 358.32 268.538 359.142C269.066 359.965 269.357 360.744 269.191 360.859C269.024 360.975 268.469 360.398 267.927 359.561C267.386 358.724 267.108 357.959 267.275 357.844Z" fill="#263238"/>
<path d="M261.333 344.831C262.083 345.774 262.644 346.863 262.985 348.033C263.534 349.112 263.869 350.295 263.971 351.51C262.659 349.496 261.761 347.222 261.333 344.831Z" fill="#263238"/>
<path d="M258.113 330.807C259.002 333.057 259.433 335.474 259.376 337.905C258.822 336.829 258.486 335.645 258.39 334.428C258.065 333.253 257.971 332.021 258.113 330.807Z" fill="#263238"/>
<path d="M257.627 316.394C258.066 318.781 258.033 321.235 257.53 323.608C257.177 322.443 257.068 321.213 257.21 320.001C257.102 318.782 257.244 317.552 257.627 316.394Z" fill="#263238"/>
<path d="M259.806 302.212C259.918 303.429 259.791 304.656 259.432 305.819C259.293 307.032 258.925 308.203 258.349 309.267C258.237 308.051 258.365 306.824 258.724 305.66C258.864 304.449 259.232 303.277 259.806 302.212Z" fill="#263238"/>
<path d="M264.86 288.723C264.396 291.096 263.449 293.339 262.083 295.302C262.222 294.087 262.595 292.915 263.18 291.853C263.971 290.021 264.679 288.622 264.86 288.723Z" fill="#263238"/>
<path d="M272.509 276.69C272.124 277.847 271.52 278.912 270.732 279.821C270.107 280.851 269.313 281.76 268.386 282.505C268.191 282.375 268.996 280.975 270.149 279.374C271.301 277.772 272.3 276.56 272.509 276.69Z" fill="#263238"/>
<path d="M281.838 266.014C281.99 266.158 281.032 267.457 279.714 268.9C278.395 270.342 277.201 271.381 277.048 271.251C276.895 271.121 277.853 269.809 279.186 268.366C280.519 266.923 281.699 265.855 281.838 266.014Z" fill="#263238"/>
<path d="M291.611 255.742C291.763 255.886 290.778 257.185 289.431 258.627C288.085 260.07 286.877 261.08 286.738 260.936C286.599 260.791 287.571 259.493 288.917 258.05C290.264 256.608 291.472 255.598 291.611 255.742Z" fill="#263238"/>
<path d="M300.745 244.864C300.305 245.999 299.649 247.029 298.815 247.893C297.594 249.452 296.483 250.591 296.331 250.447C296.783 249.319 297.438 248.291 298.26 247.417C299.468 245.946 300.579 244.748 300.745 244.864Z" fill="#263238"/>
<path d="M307.825 232.485C307.701 233.709 307.301 234.885 306.659 235.919C306.218 237.062 305.529 238.084 304.646 238.905C304.915 237.718 305.385 236.589 306.034 235.572C306.459 234.445 307.064 233.402 307.825 232.485Z" fill="#263238"/>
<path d="M311.171 218.534C311.441 219.733 311.417 220.983 311.101 222.169C311.021 223.401 310.655 224.595 310.032 225.646C309.961 224.436 310.083 223.223 310.393 222.054C310.468 220.845 310.731 219.656 311.171 218.534Z" fill="#263238"/>
<path d="M310.171 204.207C310.787 205.26 311.14 206.455 311.198 207.684C311.484 208.883 311.484 210.136 311.198 211.335C310.761 210.208 310.508 209.013 310.449 207.8C310.17 206.626 310.076 205.413 310.171 204.207Z" fill="#263238"/>
<path d="M304.715 191.006C304.882 190.891 305.895 192.146 306.812 193.892C307.473 194.918 307.883 196.097 308.006 197.326C307.241 196.409 306.622 195.372 306.173 194.253C305.531 193.254 305.039 192.159 304.715 191.006Z" fill="#263238"/>
<path d="M295.04 180.763C296.171 181.132 297.2 181.781 298.038 182.653C299.523 183.951 300.495 185.25 300.356 185.394C300.218 185.538 298.968 184.5 297.58 183.23C296.192 181.961 294.915 180.936 295.04 180.763Z" fill="#263238"/>
<path d="M282.421 174.906C283.603 174.83 284.785 175.058 285.863 175.569C287.022 175.848 288.096 176.423 288.987 177.243C287.825 177.106 286.691 176.78 285.627 176.276C284.491 176.012 283.407 175.548 282.421 174.906Z" fill="#263238"/>
<path d="M268.622 174.256C269.684 173.706 270.865 173.447 272.05 173.506C273.228 173.325 274.431 173.454 275.549 173.881C274.421 174.186 273.256 174.313 272.092 174.256C270.942 174.445 269.771 174.445 268.622 174.256Z" fill="#263238"/>
<path d="M255.822 179.58C255.697 179.407 256.891 178.325 258.599 177.373C259.582 176.672 260.727 176.259 261.916 176.175C261.012 176.936 260.007 177.558 258.932 178.022C257.976 178.7 256.928 179.225 255.822 179.58Z" fill="#263238"/>
<path d="M246.285 189.939C246.587 188.744 247.174 187.647 247.993 186.75C249.173 185.149 250.394 184.096 250.533 184.24C250.672 184.384 249.714 185.683 248.562 187.212C247.41 188.741 246.452 190.04 246.285 189.939Z" fill="#263238"/>
<path d="M241.607 203.414C241.389 202.199 241.479 200.946 241.871 199.778C242.045 198.547 242.524 197.384 243.259 196.402C243.215 197.613 242.995 198.81 242.606 199.951C242.446 201.152 242.109 202.32 241.607 203.414Z" fill="#263238"/>
<path d="M243.259 217.625C242.524 216.643 242.045 215.48 241.871 214.249C241.472 213.084 241.376 211.829 241.593 210.613C242.074 211.714 242.406 212.88 242.578 214.076C242.969 215.218 243.198 216.414 243.259 217.625Z" fill="#263238"/>
<path d="M250.297 229.975C250.144 230.119 248.992 228.994 247.868 227.349C247.082 226.424 246.525 225.315 246.243 224.117C246.424 224.016 247.34 225.315 248.451 226.916C249.222 227.824 249.846 228.857 250.297 229.975Z" fill="#263238"/>
<path d="M260.514 239.713C259.393 239.322 258.373 238.671 257.53 237.809C256.017 236.554 254.975 235.327 255.114 235.169C256.174 235.681 257.141 236.379 257.974 237.232C259.459 238.472 260.639 239.54 260.514 239.713Z" fill="#263238"/>
<path d="M272.55 246.884C270.288 246.256 268.178 245.14 266.359 243.609C267.517 243.816 268.626 244.257 269.621 244.907C270.716 245.353 271.712 246.026 272.55 246.884Z" fill="#263238"/>
<path d="M285.766 251.255C284.588 251.395 283.395 251.247 282.282 250.822C281.109 250.641 279.995 250.171 279.033 249.452C280.203 249.47 281.362 249.689 282.462 250.101C283.621 250.279 284.739 250.67 285.766 251.255Z" fill="#263238"/>
<path d="M299.593 251.991C297.337 252.711 294.933 252.761 292.652 252.135C293.778 251.825 294.947 251.718 296.108 251.818C297.271 251.674 298.449 251.733 299.593 251.991Z" fill="#263238"/>
<path d="M312.948 248.283C311.04 249.723 308.777 250.569 306.423 250.721C307.402 250.057 308.481 249.569 309.616 249.278C310.664 248.751 311.79 248.415 312.948 248.283Z" fill="#263238"/>
<path d="M324.525 240.391C324.664 240.55 323.609 241.834 322.068 242.988C321.206 243.83 320.164 244.448 319.028 244.792C318.917 244.604 320.125 243.608 321.638 242.397C322.492 241.573 323.467 240.896 324.525 240.391Z" fill="#263238"/>
<path d="M333.563 229.484C333.242 230.667 332.657 231.754 331.855 232.658C330.703 234.274 329.551 235.385 329.398 235.255C329.245 235.125 330.148 233.812 331.286 232.211C332.424 230.609 333.382 229.369 333.563 229.484Z" fill="#263238"/>
<path d="M339.574 216.5C339.57 217.731 339.279 218.944 338.727 220.034C338.005 221.91 337.158 223.295 336.978 223.194C337.145 221.995 337.506 220.834 338.047 219.76C338.38 218.594 338.896 217.492 339.574 216.5Z" fill="#263238"/>
<path d="M342.267 202.375C342.568 204.801 342.243 207.266 341.323 209.517C341.284 207.1 341.603 204.692 342.267 202.375Z" fill="#263238"/>
<path d="M341.906 187.962C342.358 189.09 342.576 190.304 342.545 191.526C342.744 192.733 342.711 193.968 342.447 195.162C341.796 192.82 341.611 190.366 341.906 187.948V187.962Z" fill="#263238"/>
<path d="M338.935 173.881C339.578 174.908 340.009 176.063 340.198 177.272C340.616 178.413 340.805 179.63 340.754 180.85C340.117 179.82 339.687 178.666 339.49 177.459C339.072 176.319 338.883 175.101 338.935 173.881Z" fill="#263238"/>
<path d="M333.577 160.55C333.757 160.449 334.59 161.834 335.423 163.638C336.01 164.702 336.379 165.881 336.506 167.1C335.176 165.107 334.185 162.892 333.577 160.55Z" fill="#263238"/>
<path d="M326.747 147.984C326.927 147.869 327.843 149.182 328.815 150.87C329.49 151.861 329.963 152.985 330.203 154.173C329.339 153.361 328.636 152.381 328.135 151.288C327.471 150.29 326.999 149.168 326.747 147.984Z" fill="#263238"/>
<path d="M319.861 135.447C320.041 135.346 320.93 136.688 321.86 138.419C322.531 139.428 323.003 140.566 323.248 141.766C322.398 140.918 321.719 139.903 321.249 138.78C320.57 137.78 320.098 136.645 319.861 135.447Z" fill="#263238"/>
<path d="M314.433 122.174C315.69 124.228 316.517 126.533 316.862 128.94C316.128 127.98 315.598 126.869 315.308 125.68C314.79 124.585 314.492 123.392 314.433 122.174Z" fill="#263238"/>
<path d="M312.073 107.992C312.481 109.132 312.688 110.339 312.684 111.555C312.925 112.741 312.967 113.961 312.809 115.162C312.262 114.07 311.976 112.858 311.976 111.627C311.735 110.424 311.769 109.179 312.073 107.992Z" fill="#263238"/>
<path d="M313.225 93.6365C313.336 94.8448 313.251 96.0639 312.975 97.2433C312.926 98.4594 312.667 99.6566 312.212 100.778C311.943 99.5774 311.943 98.3286 312.212 97.1279C312.28 95.8974 312.627 94.701 313.225 93.6365Z" fill="#263238"/>
<path d="M317.751 80.0315C317.574 81.2341 317.199 82.3959 316.64 83.4652C316.296 84.6264 315.766 85.719 315.072 86.6969C315.366 84.2637 316.293 81.9596 317.751 80.0315Z" fill="#263238"/>
<path d="M325.483 68.0712C325.636 68.2155 324.72 69.514 323.554 71.0866C322.388 72.6591 321.402 73.972 321.235 73.7845C321.565 72.6001 322.165 71.5161 322.984 70.6249C324.164 69.0379 325.344 67.9414 325.483 68.0712Z" fill="#263238"/>
<path d="M335.909 58.5781C336.02 58.7512 334.812 59.7755 333.313 60.9874C332.462 61.8216 331.481 62.4997 330.411 62.9928C330.273 62.8341 331.342 61.5501 332.869 60.3959C333.731 59.5504 334.772 58.9276 335.909 58.5781Z" fill="#263238"/>
<path d="M348.264 52.0569C347.329 52.7867 346.283 53.3476 345.168 53.716C344.152 54.3103 343.043 54.7155 341.892 54.9135C341.795 54.7259 343.114 53.8314 344.891 53.0379C345.922 52.4308 347.08 52.094 348.264 52.0569Z" fill="#263238"/>
<path d="M358.37 49.4022C358.37 49.6042 357.662 49.9216 356.732 50.0948C355.802 50.2679 354.997 50.2679 354.955 50.0948C354.914 49.9216 355.649 49.5754 356.593 49.3878C357.537 49.2003 358.37 49.2003 358.37 49.4022Z" fill="#263238"/>
<path d="M386.662 6.92823C386.662 6.92823 402.96 -5.16186 425.533 2.60004C425.533 2.60004 427.379 22.0192 409.29 37.4564" fill="#B0BEC5"/>
<path d="M335.256 42.7945C335.951 43.8766 353.65 73.4382 353.65 73.4382L406.778 39.4185C408.971 38.0141 410.859 36.1516 412.323 33.9491C413.787 31.7466 414.795 29.2521 415.283 26.6237C415.771 23.9952 415.729 21.29 415.158 18.6795C414.588 16.069 413.502 13.61 411.97 11.4584C409.122 7.46464 404.903 4.76523 400.19 3.92149C395.476 3.07776 390.631 4.15465 386.662 6.92821L335.256 42.7945Z" fill="#B0BEC5"/>
<path d="M353.65 73.4382L352.456 94.2424C352.456 94.2424 386.884 76.9296 378.291 57.6547L353.65 73.4382Z" fill="#263238"/>
<path d="M359.87 25.6261C359.87 25.6261 336.52 14.921 317.307 30.6179L335.256 42.7946L359.87 25.6261Z" fill="#263238"/>
<path d="M359.759 42.809L326.538 64.45C326.538 64.45 327.677 68.1722 328.565 67.8548C329.454 67.5374 354.289 52.2733 362.382 47.2959C362.692 47.1046 362.958 46.846 363.162 46.538C363.366 46.2299 363.504 45.8797 363.566 45.5111C363.628 45.1426 363.613 44.7644 363.521 44.4026C363.429 44.0408 363.263 43.7039 363.035 43.4149C362.654 42.9161 362.11 42.5791 361.507 42.4675C360.904 42.3559 360.282 42.4774 359.759 42.809Z" fill="#263238"/>
<path d="M400.673 28.9689C402.018 23.0277 398.474 17.0781 392.757 15.6802C387.041 14.2824 381.316 17.9655 379.971 23.9067C378.626 29.848 382.17 35.7975 387.886 37.1954C393.603 38.5933 399.328 34.9102 400.673 28.9689Z" fill="#FAFAFA"/>
<path d="M400.947 26.434C400.864 26.434 400.947 25.4529 400.475 23.7794C399.855 21.41 398.486 19.3265 396.588 17.8642C395.299 16.8589 393.802 16.1819 392.215 15.8876C390.401 15.5515 388.533 15.7207 386.801 16.3781C384.866 17.0902 383.182 18.3925 381.97 20.1148C380.671 21.9452 379.971 24.1597 379.971 26.434C379.971 28.7082 380.671 30.9228 381.97 32.7532C383.17 34.4666 384.832 35.772 386.746 36.5043C388.477 37.161 390.345 37.3302 392.16 36.9948C393.746 36.7005 395.244 36.0235 396.533 35.0183C398.427 33.5528 399.796 31.4705 400.42 29.103C400.85 27.4295 400.808 26.434 400.892 26.434C400.928 26.673 400.928 26.9164 400.892 27.1554C400.888 27.8358 400.808 28.5135 400.656 29.1752C400.186 31.276 399.139 33.1901 397.644 34.6856C396.148 36.181 394.267 37.1936 392.229 37.6007C390.201 38.0133 388.102 37.8173 386.177 37.0355C384.252 36.2537 382.581 34.9185 381.359 33.186C379.962 31.2343 379.207 28.8666 379.207 26.434C379.207 24.0014 379.962 21.6336 381.359 19.682C382.644 17.8576 384.43 16.4796 386.482 15.7289C388.202 15.0812 390.053 14.8989 391.86 15.1992C393.667 15.4996 395.37 16.2727 396.81 17.4458C398.799 19.0049 400.194 21.2423 400.753 23.7649C400.906 24.4266 400.985 25.1043 400.989 25.7848C401.006 26.0021 400.992 26.221 400.947 26.434Z" fill="#263238"/>
<path d="M413.899 33.8641C413.761 33.8641 413.608 31.7144 412.789 28.3528C412.304 26.3866 411.687 24.4582 410.942 22.5819C409.093 18.0017 406.48 13.7966 403.224 10.16C401.89 8.68044 400.457 7.30155 398.934 6.03375C396.311 3.88408 394.492 2.84532 394.561 2.71547C395.024 2.87672 395.467 3.09466 395.88 3.36469C396.391 3.63987 396.886 3.94327 397.366 4.27361C397.921 4.66315 398.573 5.06712 399.24 5.61535C400.835 6.83571 402.326 8.19693 403.696 9.68386C407.088 13.3201 409.757 17.6145 411.553 22.3222C412.287 24.2361 412.868 26.2097 413.289 28.223C413.497 29.0742 413.58 29.8677 413.691 30.5602C413.783 31.1477 413.844 31.7402 413.872 32.3348C413.952 32.8405 413.961 33.3556 413.899 33.8641Z" fill="#263238"/>
<path d="M411.04 35.3933C410.901 35.3933 410.734 33.2148 409.901 29.7955C409.407 27.8005 408.781 25.8433 408.027 23.938C407.081 21.6146 405.952 19.3756 404.654 17.2438C403.33 15.1316 401.845 13.1341 400.212 11.2708C398.858 9.75504 397.401 8.34234 395.852 7.04364C393.201 4.83626 391.355 3.76864 391.424 3.63879C391.912 3.8047 392.378 4.03243 392.812 4.31687C393.325 4.59771 393.821 4.91089 394.298 5.25465C394.867 5.64418 395.533 6.077 396.2 6.69738C397.799 7.93398 399.303 9.29915 400.697 10.7803C402.39 12.6495 403.919 14.6726 405.265 16.8254C406.579 18.9982 407.708 21.2864 408.638 23.6639C409.381 25.6115 409.971 27.6187 410.401 29.6657C410.609 30.5313 410.693 31.3393 410.804 32.0318C410.906 32.6279 410.971 33.2303 410.998 33.8352C411.068 34.3513 411.082 34.874 411.04 35.3933Z" fill="#263238"/>
<path d="M86.0561 494.096C84.8622 489.19 87.9857 484.285 91.4702 480.75C94.9546 477.216 99.1054 474.056 100.938 469.367C103.895 461.778 100.022 451.896 105.103 445.577C108.046 441.854 113.321 440.642 115.931 436.661C117.147 434.465 117.957 432.053 118.318 429.548C121.155 416.914 127.206 405.304 135.838 395.932C136.376 407.2 133.978 418.41 128.897 428.379C126.856 432.361 124.357 436.242 123.677 440.7C122.539 447.914 126.453 455.402 124.649 462.5C122.636 470.608 113.834 476.004 113.362 484.357C112.974 491.441 118.915 497.674 118.388 504.743C118.023 507.747 116.971 510.616 115.32 513.111C109.878 522.128 102.146 528.346 90.4429 528.072L76.0887 528.505L86.0561 494.096Z" fill="#B0BEC5"/>
<g opacity="0.3">
<path d="M86.0561 494.096C84.8622 489.19 87.9857 484.285 91.4702 480.75C94.9546 477.216 99.1054 474.056 100.938 469.367C103.895 461.778 100.022 451.896 105.103 445.577C108.046 441.854 113.321 440.642 115.931 436.661C117.147 434.465 117.957 432.053 118.318 429.548C121.155 416.914 127.206 405.304 135.838 395.932C136.376 407.2 133.978 418.41 128.897 428.379C126.856 432.361 124.357 436.242 123.677 440.7C122.539 447.914 126.453 455.402 124.649 462.5C122.636 470.608 113.834 476.004 113.362 484.357C112.974 491.441 118.915 497.674 118.388 504.743C118.023 507.747 116.971 510.616 115.32 513.111C109.878 522.128 102.146 528.346 90.4429 528.072L76.0887 528.505L86.0561 494.096Z" fill="black"/>
</g>
<path d="M73.1734 528.88C71.8584 529.086 70.5187 529.047 69.2169 528.765C67.6309 528.513 66.0731 528.097 64.5664 527.524C62.4881 526.754 60.5462 525.633 58.8191 524.206C57.7832 523.332 56.9762 522.2 56.473 520.916C56.0475 519.471 55.8277 517.969 55.8206 516.458C55.799 514.843 55.6971 513.229 55.5151 511.625C55.2443 509.921 54.6548 508.289 53.7799 506.821C52.114 503.719 49.3098 500.79 48.4352 496.577C47.5606 492.364 48.1992 487.921 48.8933 483.521C49.5874 479.12 50.2815 474.172 48.6295 469.497C46.9776 464.823 43.9929 460.596 42.4519 455.33C40.911 450.064 41.6745 444.307 41.3691 438.666C41.2899 435.804 40.6721 432.986 39.5506 430.37C38.3983 427.73 36.7741 425.234 35.5664 422.45C33.0537 416.809 32.6372 410.446 31.9708 404.199C31.6516 401.054 31.3184 397.865 30.9991 394.663C30.8018 391.431 30.2807 388.231 29.4443 385.112C28.4977 381.962 27.3712 378.874 26.0709 375.864C25.3945 374.304 24.8465 372.687 24.4328 371.031C24.1965 369.328 24.0482 367.614 23.9886 365.895C23.8527 362.449 24.0013 358.998 24.4328 355.579C24.8354 352.145 25.4601 348.726 25.821 345.278C25.821 345.076 25.821 344.874 25.821 344.686L25.8904 344.008L26.4735 344.311C29.5121 345.935 32.1452 348.271 34.1642 351.135C36.1402 353.928 37.7246 356.998 38.8703 360.253C41.2303 366.674 42.0494 373.397 43.2294 379.802C44.4093 386.208 45.8947 392.542 49.0182 397.88C50.5869 400.549 52.4749 402.987 54.1269 405.584C55.884 408.12 57.083 411.026 57.6391 414.096C58.4443 420.415 55.0709 425.941 55.7373 431.524C56.0843 434.275 56.9931 436.916 58.4026 439.272C59.6937 441.667 61.1791 443.874 62.6506 446.11C64.1263 448.281 65.4043 450.59 66.4682 453.007C67.484 455.377 68.0812 457.919 68.2313 460.509C68.5506 465.544 67.8426 470.305 68.2313 474.821C68.6011 479.111 69.7804 483.282 71.7019 487.098C73.4094 490.777 75.3251 494.11 76.9216 497.327C77.7184 498.879 78.4366 500.473 79.0733 502.103C79.6468 503.625 80.061 505.207 80.3088 506.821C80.7036 509.643 80.7036 512.51 80.3088 515.333C79.9118 519.275 78.4701 523.026 76.1442 526.168C75.794 526.636 75.4037 527.071 74.9781 527.466C74.6942 527.776 74.3775 528.052 74.0341 528.289L73.215 528.88C74.2376 528.025 75.1685 527.057 75.9915 525.995C78.2195 522.849 79.5867 519.134 79.9479 515.246C80.2869 512.455 80.2402 509.627 79.8091 506.849C79.551 505.269 79.1322 503.721 78.5597 502.233C77.9627 500.689 77.1715 499.131 76.4079 497.529C74.7837 494.341 72.8541 491.023 71.1049 487.315C69.1291 483.436 67.9074 479.19 67.5094 474.821C67.1485 470.219 67.8426 465.443 67.5094 460.523C67.3618 458.033 66.7883 455.591 65.8158 453.31C64.7583 450.939 63.4944 448.674 62.0398 446.543C60.6516 444.321 59.069 442.1 57.7363 439.661C56.3003 437.196 55.3825 434.443 55.0431 431.582C54.3907 425.624 57.7363 420.04 56.9034 414.197C56.3558 411.265 55.1895 408.496 53.4883 406.089C51.8641 403.535 49.9622 401.097 48.3519 398.37C45.1312 392.874 43.5764 386.439 42.4242 379.99C41.272 373.541 40.4113 366.89 38.0929 360.6C36.9784 357.431 35.4359 354.444 33.5118 351.727C31.5778 348.987 29.0594 346.75 26.1542 345.191L26.8205 344.802L26.7511 345.408C26.3624 348.899 25.7516 352.318 25.3629 355.709C24.9317 359.079 24.7831 362.483 24.9187 365.88C25.002 367.539 25.0991 369.285 25.3351 370.858C25.7464 372.451 26.2755 374.009 26.9177 375.518C28.2335 378.561 29.3739 381.683 30.3327 384.866C31.1672 388.029 31.6836 391.274 31.8737 394.547C32.2068 397.75 32.5261 400.938 32.8454 404.084C33.4979 410.36 33.9144 416.621 36.3299 422.06C37.5376 424.772 39.1063 427.268 40.3002 430.01C41.4624 432.741 42.1036 435.681 42.1882 438.666C42.4658 444.437 41.7162 450.049 43.1877 455.156C44.6592 460.264 47.755 464.476 49.3098 469.31C50.8646 474.143 50.2399 479.207 49.5319 483.665C48.8239 488.123 48.1437 492.523 49.0044 496.491C49.8651 500.458 52.5166 503.416 54.2241 506.59C55.12 508.118 55.719 509.814 55.9871 511.582C56.1656 513.205 56.2583 514.838 56.2648 516.473C56.251 517.937 56.4475 519.396 56.8478 520.801C57.3209 522.027 58.0793 523.113 59.0551 523.96C60.7201 525.373 62.5957 526.494 64.608 527.279C66.0898 527.875 67.6242 528.32 69.1892 528.606C70.152 528.787 71.1264 528.893 72.1044 528.923C72.8263 528.866 73.1734 528.88 73.1734 528.88Z" fill="#263238"/>
<path d="M28.7918 352.924C28.856 353.067 28.9026 353.217 28.9307 353.372C29.0001 353.732 29.1111 354.165 29.2361 354.713C29.5137 355.896 29.833 357.671 30.3605 359.893C30.8881 362.115 32.2069 364.611 33.3036 367.698C34.4003 370.785 35.5941 374.306 36.6492 378.288C37.7042 382.27 38.676 386.699 39.6616 391.431C40.5003 396.512 42.0189 401.446 44.1734 406.089C45.3395 408.513 46.6444 410.98 47.6856 413.663C48.7017 416.421 49.3826 419.3 49.7124 422.233C50.4014 428.305 51.3977 434.334 52.6971 440.296C55.4735 452.531 58.25 464.188 60.6238 474.806C62.9977 485.425 65.3716 494.918 67.2734 502.954C69.1753 510.99 70.6191 517.381 71.6741 521.94L72.8263 527.12C72.9374 527.668 73.0346 528.115 73.104 528.476C73.1193 528.63 73.1193 528.784 73.104 528.938C73.0334 528.797 72.982 528.646 72.9513 528.49L72.5765 527.163C72.2572 525.922 71.8129 524.206 71.1882 522.027L66.496 503.113C64.5525 495.091 62.2342 485.569 59.666 475.023C57.0977 464.476 54.5018 452.747 51.6559 440.498C50.3908 434.491 49.4362 428.418 48.7962 422.305C48.4941 419.441 47.841 416.629 46.8526 413.938C45.8531 411.326 44.5621 408.874 43.396 406.421C41.2508 401.741 39.7417 396.774 38.912 391.662C37.9541 386.915 37.0518 382.5 36.0245 378.533C34.9972 374.565 33.9144 371.002 32.8177 367.943C31.721 364.885 30.541 362.331 30.0412 360.037C29.5415 357.743 29.2916 356.012 29.0834 354.814C28.9862 354.266 28.9168 353.804 28.8612 353.444C28.8146 353.275 28.7913 353.1 28.7918 352.924Z" fill="#263238"/>
<path d="M70.6329 528.909C61.2902 523.066 58.6942 505.479 62.6645 494.918C66.6348 484.357 73.5343 474.72 74.6449 463.466C75.5056 454.81 72.8263 445.894 74.8115 437.497C77.5046 426.071 88.2912 417.299 88.2356 405.526C88.2356 398.933 84.6262 392.7 84.9455 386.107C85.3481 378.028 91.3452 371.68 95.0796 364.553C100.799 353.689 101.243 340.805 103.242 328.6C105.241 316.394 109.795 303.323 120.248 297.379C121.733 307.767 124.329 314.894 123.427 328.946C123.094 333.981 117.402 343.619 116.569 354.67C116.083 361.278 115.722 367.9 115.306 374.522C114.89 381.144 114.445 387.507 112.196 393.523C110.475 398.125 107.712 402.295 106.421 407.056C103.992 416.015 107.074 425.739 105.033 434.814C103.367 442.504 98.2031 449.097 97.1064 456.888C95.5793 467.852 102.34 479.279 98.7861 489.724C97.0231 494.904 92.9001 499.044 91.7062 504.397C90.7761 508.552 91.7062 512.952 90.901 517.122C89.5128 523.845 77.1576 528.995 70.5635 528.548" fill="#B0BEC5"/>
<path d="M117.61 307.594C117.629 307.79 117.629 307.989 117.61 308.185C117.61 308.618 117.486 309.181 117.388 309.888C117.166 311.33 116.916 313.581 116.417 316.423C115.917 319.265 114.431 322.497 113.279 326.364C112.127 330.23 110.85 334.688 109.767 339.694C108.684 344.701 107.754 350.212 106.782 356.156C105.811 362.1 104.742 368.578 101.868 374.767C100.48 377.869 99.0915 380.985 97.9254 384.289C96.8281 387.694 96.1426 391.227 95.8847 394.807C95.3223 402.415 94.363 409.986 93.0111 417.487C90.0542 432.837 87.25 447.467 84.6818 460.769L77.5185 496.029C75.4501 506.013 73.7703 514.106 72.6042 519.776C72.0073 522.532 71.5492 524.696 71.216 526.225L70.8412 527.899C70.8025 528.091 70.7467 528.28 70.6746 528.462C70.6589 528.27 70.6589 528.077 70.6746 527.884C70.7579 527.452 70.8551 526.889 70.9661 526.182C71.2576 524.638 71.6602 522.474 72.1877 519.704C73.2844 514.02 74.867 505.897 76.8105 495.885C78.7541 485.872 81.1557 473.854 83.7517 460.581L92.081 417.299C93.42 409.826 94.3793 402.284 94.9546 394.706C95.2215 391.05 95.9305 387.444 97.0647 383.972C98.217 380.596 99.7301 377.465 101.063 374.392C103.923 368.304 104.95 361.927 105.991 355.997C107.032 350.068 107.962 344.455 109.115 339.521C110.267 334.587 111.502 330.057 112.766 326.19C114.029 322.324 115.459 319.107 116.028 316.322C116.597 313.538 116.902 311.316 117.18 309.844C117.305 309.137 117.416 308.589 117.486 308.156C117.513 307.966 117.554 307.777 117.61 307.594Z" fill="#263238"/>
<path d="M540.839 301.866H531.163V334.356H540.839V301.866Z" fill="#B0BEC5"/>
<path d="M558.65 288.492H548.974V334.342H558.65V288.492Z" fill="#B0BEC5"/>
<path d="M577.599 282.245H567.923V334.342H577.599V282.245Z" fill="#B0BEC5"/>
<path d="M596.562 275.666H586.886V334.356H596.562V275.666Z" fill="#B0BEC5"/>
<path d="M204.999 344.051C205.725 344.157 206.428 344.386 207.082 344.73C208.617 345.509 209.904 346.731 210.788 348.251C211.672 349.771 212.116 351.524 212.065 353.299C212.023 354.974 211.543 356.605 210.677 358.017C209.717 359.588 208.33 360.828 206.693 361.581C204.934 362.393 202.97 362.594 201.092 362.155C199.214 361.716 197.522 360.659 196.267 359.142C195.687 358.43 195.218 357.626 194.879 356.762C194.519 355.94 194.29 355.063 194.199 354.165C193.998 352.501 194.233 350.811 194.879 349.274C195.557 347.644 196.677 346.254 198.101 345.273C199.526 344.292 201.194 343.762 202.903 343.749C203.636 343.72 204.369 343.823 205.069 344.051C205.069 344.051 204.291 343.893 202.917 343.95C200.959 344.032 199.085 344.8 197.6 346.129C196.578 347.028 195.774 348.165 195.254 349.447C194.665 350.919 194.459 352.526 194.657 354.107C194.758 354.955 194.983 355.782 195.323 356.56C195.666 357.383 196.135 358.143 196.712 358.811C197.905 360.235 199.504 361.226 201.278 361.638C203.051 362.051 204.904 361.864 206.568 361.105C207.362 360.753 208.094 360.265 208.734 359.662C209.369 359.109 209.917 358.457 210.358 357.729C211.004 356.675 211.432 355.493 211.616 354.257C211.799 353.022 211.733 351.761 211.423 350.553C211.112 349.346 210.563 348.219 209.811 347.244C209.059 346.268 208.12 345.466 207.054 344.888C205.763 344.21 204.985 344.051 204.999 344.051Z" fill="#263238"/>
<path d="M212.051 334.227C212.045 334.121 212.045 334.015 212.051 333.909C212.051 333.664 212.051 333.346 212.051 332.928C212.051 332.034 212.051 330.75 212.051 329.076L212.121 329.163L204.111 327.345L204.25 327.273L202.139 331.933V332.019H202.042C200.269 332.099 198.514 332.424 196.823 332.986H196.725L196.656 332.914L193.13 329.292H193.172L186.23 333.88L186.314 333.635L187.98 338.483V338.598L187.896 338.699C186.699 340.056 185.677 341.569 184.856 343.2V343.316H184.842H179.9L180.108 343.128C179.553 345.74 178.942 348.553 178.331 351.438L178.206 351.164L182.677 353.372L182.802 353.444V353.588C182.88 355.424 183.183 357.242 183.704 358.998V359.142L183.593 359.258L180.094 362.908V362.591L184.481 369.804L184.19 369.689L188.854 367.958H189.007L189.118 368.059C190.409 369.308 191.857 370.371 193.421 371.218C193.491 371.319 193.296 370.987 193.56 371.449V376.585L193.366 376.325L201.362 378.201L201.084 378.345C201.792 376.773 202.473 375.229 203.208 373.685L203.278 373.555H203.431C205.194 373.486 206.94 373.171 208.623 372.618H208.775L208.872 372.719L212.385 376.369H212.079L219.02 371.824L218.923 372.098C218.354 370.454 217.813 368.838 217.257 367.251V367.121L217.354 367.005C218.559 365.657 219.586 364.148 220.409 362.518V362.403H225.489L225.295 362.576C225.934 359.691 226.531 356.892 227.1 354.252L227.211 354.483L222.741 352.261H222.644V352.145C222.583 350.304 222.284 348.479 221.755 346.721V346.62V346.547L225.267 342.897V343.099L220.908 335.886H221.047L216.369 337.574C215.386 336.628 214.322 335.778 213.19 335.034L212.329 334.501L212.051 334.313L212.357 334.457L213.231 334.948C214.39 335.668 215.478 336.504 216.48 337.444H216.397L221.047 335.684H221.13V335.77L225.545 342.984V343.085L225.462 343.186L221.977 346.836V346.663C222.528 348.452 222.84 350.311 222.907 352.189L222.81 352.03L227.294 354.223L227.433 354.295V354.454C226.878 357.079 226.281 359.835 225.656 362.764V362.937H220.533L220.728 362.821C219.892 364.488 218.846 366.03 217.618 367.409V367.179C218.16 368.766 218.729 370.381 219.284 372.026L219.353 372.214L219.187 372.315L212.246 376.874L212.079 376.989L211.94 376.845L208.428 373.209H208.678C206.951 373.779 205.158 374.104 203.347 374.176L203.555 374.032C202.861 375.561 202.167 377.119 201.431 378.677L201.348 378.865H201.154L193.158 377.004H192.963V371.463C193.227 371.925 192.963 371.593 193.102 371.694C191.498 370.828 190.013 369.741 188.688 368.463H188.937L184.273 370.179L184.079 370.252L183.982 370.078L179.595 362.865L179.484 362.692L179.622 362.547L183.121 358.897V359.157C182.578 357.361 182.265 355.498 182.191 353.617L182.33 353.819L177.901 351.684L177.734 351.597V351.409L179.539 343.099V342.912H184.842L184.662 343.027C185.496 341.365 186.542 339.826 187.771 338.454V338.67L186.119 333.808V333.649L186.258 333.563L193.199 329.018L193.324 328.946L193.435 329.047L196.934 332.697H196.767C198.486 332.138 200.27 331.823 202.07 331.759L201.945 331.846L204.097 327.2V327.099H204.194L212.176 329.018H212.246C212.246 330.677 212.246 331.904 212.246 332.842C212.246 333.26 212.246 333.592 212.246 333.823C212.19 333.962 212.125 334.097 212.051 334.227Z" fill="#263238"/>
<path fill-rule="evenodd" clip-rule="evenodd" d="M196.948 269.506C198.701 270.457 200.325 271.646 201.779 273.04L206.943 271.136L211.788 279.085L207.928 283.125C208.52 285.09 208.861 287.127 208.942 289.184L213.884 291.623L211.899 300.77H206.429C205.508 302.592 204.36 304.28 203.014 305.79L204.86 311.157L197.197 316.192L193.31 312.311C191.424 312.925 189.469 313.279 187.494 313.365L185.148 318.501L176.305 316.438V310.753C174.549 309.799 172.924 308.606 171.474 307.204L166.309 309.123L161.451 301.159L165.324 297.134C164.734 295.168 164.394 293.131 164.31 291.074L159.368 288.636L161.34 279.446H166.795C167.708 277.622 168.852 275.933 170.196 274.425L168.378 269.029L176.027 263.98L179.914 268.005C181.805 267.39 183.765 267.036 185.745 266.952L188.091 261.816L196.934 263.879V269.563L196.948 269.506ZM189.146 280.326C187.271 279.89 185.313 280.041 183.521 280.761C181.729 281.481 180.182 282.736 179.077 284.369C177.971 286.002 177.356 287.939 177.309 289.935C177.262 291.931 177.786 293.897 178.813 295.584C179.841 297.271 181.327 298.604 183.084 299.413C184.84 300.223 186.788 300.473 188.681 300.132C190.574 299.792 192.328 298.876 193.72 297.5C195.112 296.124 196.081 294.35 196.503 292.402C196.784 291.107 196.817 289.767 196.599 288.459C196.381 287.151 195.917 285.9 195.234 284.779C194.55 283.657 193.661 282.686 192.616 281.922C191.572 281.158 190.392 280.616 189.146 280.326Z" fill="#B0BEC5"/>
<g opacity="0.8">
<path fill-rule="evenodd" clip-rule="evenodd" d="M196.948 269.506C198.701 270.457 200.325 271.646 201.779 273.04L206.943 271.136L211.788 279.085L207.928 283.125C208.52 285.09 208.861 287.127 208.942 289.184L213.884 291.623L211.899 300.77H206.429C205.508 302.592 204.36 304.28 203.014 305.79L204.86 311.157L197.197 316.192L193.31 312.311C191.424 312.925 189.469 313.279 187.494 313.365L185.148 318.501L176.305 316.438V310.753C174.549 309.799 172.924 308.606 171.474 307.204L166.309 309.123L161.451 301.159L165.324 297.134C164.734 295.168 164.394 293.131 164.31 291.074L159.368 288.636L161.34 279.446H166.795C167.708 277.622 168.852 275.933 170.196 274.425L168.378 269.029L176.027 263.98L179.914 268.005C181.805 267.39 183.765 267.036 185.745 266.952L188.091 261.816L196.934 263.879V269.563L196.948 269.506ZM189.146 280.326C187.271 279.89 185.313 280.041 183.521 280.761C181.729 281.481 180.182 282.736 179.077 284.369C177.971 286.002 177.356 287.939 177.309 289.935C177.262 291.931 177.786 293.897 178.813 295.584C179.841 297.271 181.327 298.604 183.084 299.413C184.84 300.223 186.788 300.473 188.681 300.132C190.574 299.792 192.328 298.876 193.72 297.5C195.112 296.124 196.081 294.35 196.503 292.402C196.784 291.107 196.817 289.767 196.599 288.459C196.381 287.151 195.917 285.9 195.234 284.779C194.55 283.657 193.661 282.686 192.616 281.922C191.572 281.158 190.392 280.616 189.146 280.326Z" fill="white"/>
</g>
<path fill-rule="evenodd" clip-rule="evenodd" d="M164.963 323.666C165.971 324.218 166.905 324.907 167.739 325.714L170.752 324.603L173.528 329.235L171.279 331.586C171.626 332.727 171.827 333.911 171.876 335.107L174.75 336.549L173.736 341.887H170.543C170.01 342.934 169.347 343.904 168.572 344.773L169.641 347.889L165.171 350.775L162.922 348.437C161.818 348.792 160.675 348.995 159.521 349.043L158.133 352.044L152.982 350.832V347.529C151.972 346.974 151.038 346.28 150.206 345.465L147.194 346.576L144.417 341.945L146.666 339.593C146.324 338.452 146.128 337.268 146.083 336.073L143.195 334.63L144.348 329.278H147.36C147.901 328.232 148.568 327.262 149.345 326.393L148.276 323.276L152.733 320.391L154.995 322.742C156.092 322.375 157.232 322.166 158.383 322.122L159.771 319.136L164.921 320.333V323.651L164.963 323.666ZM160.423 329.956C159.33 329.699 158.188 329.784 157.142 330.202C156.095 330.619 155.192 331.35 154.545 332.302C153.899 333.253 153.538 334.383 153.51 335.547C153.481 336.712 153.786 337.859 154.385 338.843C154.984 339.828 155.851 340.605 156.875 341.078C157.9 341.55 159.036 341.696 160.141 341.496C161.245 341.297 162.268 340.762 163.079 339.958C163.891 339.155 164.454 338.119 164.699 336.982C165.026 335.461 164.76 333.868 163.959 332.551C163.157 331.233 161.886 330.3 160.423 329.956Z" fill="#B0BEC5"/>
<g opacity="0.4">
<path fill-rule="evenodd" clip-rule="evenodd" d="M164.963 323.666C165.971 324.218 166.905 324.907 167.739 325.714L170.752 324.603L173.528 329.235L171.279 331.586C171.626 332.727 171.827 333.911 171.876 335.107L174.75 336.549L173.736 341.887H170.543C170.01 342.934 169.347 343.904 168.572 344.773L169.641 347.889L165.171 350.775L162.922 348.437C161.818 348.792 160.675 348.995 159.521 349.043L158.133 352.044L152.982 350.832V347.529C151.972 346.974 151.038 346.28 150.206 345.465L147.194 346.576L144.417 341.945L146.666 339.593C146.324 338.452 146.128 337.268 146.083 336.073L143.195 334.63L144.348 329.278H147.36C147.901 328.232 148.568 327.262 149.345 326.393L148.276 323.276L152.733 320.391L154.995 322.742C156.092 322.375 157.232 322.166 158.383 322.122L159.771 319.136L164.921 320.333V323.651L164.963 323.666ZM160.423 329.956C159.33 329.699 158.188 329.784 157.142 330.202C156.095 330.619 155.192 331.35 154.545 332.302C153.899 333.253 153.538 334.383 153.51 335.547C153.481 336.712 153.786 337.859 154.385 338.843C154.984 339.828 155.851 340.605 156.875 341.078C157.9 341.55 159.036 341.696 160.141 341.496C161.245 341.297 162.268 340.762 163.079 339.958C163.891 339.155 164.454 338.119 164.699 336.982C165.026 335.461 164.76 333.868 163.959 332.551C163.157 331.233 161.886 330.3 160.423 329.956Z" fill="white"/>
</g>
<path d="M471.552 270.573C474.464 269.703 477.012 267.845 478.79 265.296C480.569 262.747 481.476 259.653 481.367 256.507C481.201 253.621 480.187 250.938 480.298 248.11C480.479 243.782 483.283 240.016 485.393 236.207C487.503 232.398 488.905 227.392 486.448 223.814C484.865 221.491 482.047 220.453 480.118 218.433C478.188 216.413 477.341 213.715 476.314 211.133C475.287 208.55 473.996 205.881 471.663 204.51C469.331 203.14 465.763 203.731 464.806 206.343" fill="#263238"/>
<path d="M446.342 199.403C450.507 196.648 451.506 190.285 449.244 185.741C446.981 181.196 442.205 178.426 437.346 177.604C433.811 177.045 430.199 177.363 426.805 178.531C423.41 179.699 420.33 181.685 417.814 184.327C415.135 187.212 412.955 190.949 409.318 192.262C406.125 193.43 402.585 192.377 399.226 192.839C396.986 193.26 394.864 194.196 393.017 195.579C391.17 196.962 389.644 198.756 388.55 200.831C386.4 205.006 385.109 209.6 384.76 214.321C384.275 218.649 383.941 223.338 381.082 226.469C378.222 229.6 373.849 230.177 370.378 232.355C367.182 234.545 364.936 237.947 364.122 241.835C363.307 245.722 363.988 249.787 366.019 253.159C367.408 255.237 369.379 257.156 369.532 259.681C369.684 262.205 368.254 264.009 367.574 266.259C367.224 267.682 367.171 269.166 367.42 270.612C367.668 272.058 368.212 273.431 369.015 274.64C369.817 275.848 370.86 276.864 372.072 277.619C373.284 278.373 374.638 278.849 376.042 279.013C378.93 279.186 382.012 278.018 384.608 279.359C387.204 280.701 388.134 283.918 389.772 286.371C391.463 288.736 393.884 290.428 396.63 291.163C399.376 291.898 402.281 291.633 404.862 290.411C406.986 289.329 409.027 287.525 411.345 287.713C413.663 287.9 415.51 289.963 417.87 290.425C420.91 291.031 423.784 288.708 425.588 286.097C427.393 283.486 428.656 280.413 430.961 278.277C433.987 275.478 438.235 274.8 442.066 273.43C446.3 271.909 450.171 269.461 453.417 266.252C456.662 263.043 459.207 259.147 460.88 254.828C462.553 250.509 463.314 245.867 463.112 241.216C462.91 236.565 461.75 232.013 459.711 227.868" fill="#263238"/>
<path d="M455.546 205.073C457.201 205.261 458.728 206.086 459.826 207.387C460.923 208.688 461.511 210.37 461.474 212.099L457.504 305.401C457.337 316.423 441.844 322.613 430.489 322.338C419.022 322.064 418.661 316.221 418.508 305.733C418.272 288.218 418.3 281.639 418.286 281.74C418.272 281.841 403.807 279.215 400.85 259.565C399.379 249.783 399.878 233.769 400.697 220.684C401.447 208.896 409.027 194.455 420.285 195.724L455.546 205.073Z" fill="#FFBE9D"/>
<path d="M404.793 233.394C404.788 234.05 405.029 234.683 405.464 235.159C405.899 235.635 406.494 235.918 407.125 235.948C407.433 235.973 407.743 235.934 408.036 235.834C408.329 235.733 408.6 235.573 408.833 235.362C409.066 235.151 409.256 234.893 409.391 234.605C409.527 234.317 409.606 234.003 409.624 233.683C409.635 233.026 409.399 232.392 408.966 231.914C408.532 231.437 407.936 231.155 407.305 231.129C406.997 231.103 406.686 231.142 406.392 231.242C406.098 231.343 405.826 231.503 405.592 231.714C405.358 231.925 405.167 232.182 405.03 232.47C404.893 232.759 404.812 233.073 404.793 233.394Z" fill="#263238"/>
<path d="M403.96 229.023C404.265 229.354 406.098 227.94 408.707 227.955C411.317 227.969 413.219 229.326 413.511 228.994C413.802 228.662 413.344 228.258 412.511 227.623C411.384 226.806 410.04 226.373 408.666 226.382C407.31 226.371 405.987 226.811 404.89 227.638C404.085 228.272 403.807 228.878 403.96 229.023Z" fill="#263238"/>
<path d="M430.794 233.394C430.79 234.05 431.03 234.683 431.465 235.159C431.9 235.635 432.495 235.918 433.126 235.948C433.434 235.973 433.744 235.934 434.037 235.834C434.331 235.733 434.602 235.573 434.834 235.362C435.067 235.151 435.257 234.893 435.393 234.605C435.529 234.317 435.608 234.003 435.625 233.683C435.636 233.024 435.398 232.387 434.962 231.91C434.526 231.432 433.926 231.151 433.293 231.129C432.985 231.103 432.675 231.142 432.382 231.243C432.089 231.343 431.818 231.504 431.585 231.715C431.352 231.926 431.162 232.183 431.026 232.472C430.891 232.76 430.812 233.073 430.794 233.394Z" fill="#263238"/>
<path d="M429.6 229.585C429.906 229.917 431.738 228.503 434.348 228.518C436.958 228.532 438.86 229.96 439.151 229.556C439.443 229.152 438.985 228.82 438.152 228.186C437.024 227.369 435.681 226.936 434.306 226.945C432.952 226.94 431.631 227.38 430.53 228.2C429.725 228.849 429.447 229.441 429.6 229.585Z" fill="#263238"/>
<path d="M420.091 249.668C418.74 249.221 417.341 248.95 415.926 248.86C415.26 248.788 414.621 248.644 414.538 248.182C414.483 247.466 414.644 246.751 414.996 246.133C415.621 244.46 416.287 242.7 416.967 240.867C419.744 233.365 421.715 227.19 421.424 227.089C421.132 226.988 418.647 232.961 415.871 240.449C415.218 242.31 414.58 244.07 413.983 245.758C413.555 246.589 413.427 247.551 413.622 248.471C413.717 248.715 413.866 248.934 414.056 249.109C414.247 249.284 414.473 249.411 414.718 249.48C415.089 249.587 415.472 249.646 415.857 249.654C417.262 249.84 418.684 249.845 420.091 249.668Z" fill="#263238"/>
<path d="M418.217 281.74C427.117 281.905 435.886 279.503 443.552 274.8C443.552 274.8 437.138 288.651 418.217 286.761V281.74Z" fill="#EB996E"/>
<path d="M421.174 256.204C421.668 255.565 422.308 255.066 423.035 254.751C423.763 254.436 424.554 254.315 425.338 254.4C425.914 254.452 426.473 254.626 426.982 254.912C427.491 255.197 427.937 255.588 428.295 256.059C428.637 256.514 428.84 257.066 428.877 257.642C428.914 258.218 428.784 258.793 428.503 259.291C428.08 259.774 427.529 260.117 426.919 260.276C426.309 260.436 425.667 260.404 425.075 260.185C423.846 259.722 422.714 259.017 421.743 258.108C421.456 257.883 421.208 257.61 421.007 257.3C420.911 257.151 420.86 256.975 420.86 256.795C420.86 256.615 420.911 256.44 421.007 256.29" fill="#B0BEC5"/>
<path d="M427.782 251.558C427.351 251.558 427.337 254.443 424.908 256.564C422.479 258.685 419.466 258.31 419.452 258.728C419.452 258.901 420.119 259.291 421.396 259.334C423.054 259.369 424.669 258.786 425.949 257.69C427.186 256.649 427.983 255.148 428.17 253.506C428.267 252.279 427.948 251.544 427.782 251.558Z" fill="#263238"/>
<path d="M428.434 224.839C428.684 225.574 431.294 225.228 434.348 225.618C437.402 226.007 439.901 226.887 440.29 226.224C440.484 225.906 440.054 225.214 439.054 224.492C437.721 223.621 436.216 223.073 434.651 222.891C433.086 222.708 431.502 222.896 430.017 223.439C428.892 223.901 428.323 224.492 428.434 224.839Z" fill="#263238"/>
<path d="M404.931 221.174C405.39 221.794 407.194 221.174 409.346 221.174C411.498 221.174 413.344 221.592 413.761 220.958C413.955 220.64 413.663 220.02 412.858 219.443C411.788 218.737 410.539 218.38 409.272 218.419C408.006 218.457 406.779 218.889 405.75 219.659C404.987 220.236 404.737 220.871 404.931 221.174Z" fill="#263238"/>
<path d="M443.052 198.682C445.205 197.115 447.656 196.047 450.24 195.549C452.824 195.051 455.481 195.136 458.031 195.796C463.07 197.239 467.249 202.029 467.429 207.338C467.54 210.801 466.041 214.552 467.582 217.625C469.123 220.698 472.455 221.809 474.926 223.973C476.819 225.693 478.105 228.022 478.578 230.59C479.051 233.157 478.684 235.815 477.536 238.141C475.467 242.079 471.136 244.965 470.775 249.408C470.428 253.592 473.815 257.127 474.648 261.239C475.55 265.769 473.135 270.458 469.678 273.473C466.222 276.488 461.835 278.148 457.559 279.735C454.227 280.99 450.618 282.259 447.189 281.437C445.163 280.872 443.344 279.696 441.961 278.058C440.577 276.42 439.691 274.393 439.415 272.232C439.209 270.078 439.453 267.903 440.131 265.856C440.809 263.809 441.905 261.939 443.344 260.373C445.773 257.589 449.188 255.237 449.771 251.558C450.673 245.787 444.121 241.156 444.524 235.385C444.732 232.413 446.759 229.946 448.438 227.493C450.118 225.041 451.59 221.967 450.549 219.183C449.16 215.547 444.621 214.595 441.844 211.969C440.7 210.85 439.877 209.422 439.468 207.846C439.058 206.269 439.078 204.604 439.526 203.039C440.031 201.475 440.936 200.083 442.144 199.013C443.352 197.943 444.818 197.235 446.384 196.965" fill="#263238"/>
<path d="M445.093 194.253C445.102 196.228 444.691 198.182 443.891 199.974C443.09 201.766 441.919 203.353 440.46 204.62C439.002 205.888 437.292 206.806 435.453 207.308C433.615 207.81 431.692 207.884 429.822 207.526C426.935 206.978 423.77 205.463 421.271 207.064C418.772 208.666 418.494 212.835 416.204 214.956C412.872 217.971 407.583 215.143 403.349 216.399C400.087 217.408 398.046 220.64 395.866 223.381C393.687 226.123 390.452 228.705 387.176 227.71C387.275 224.647 387.712 221.607 388.481 218.649C389.263 215.674 391.009 213.07 393.423 211.277C394.852 210.504 396.242 209.657 397.588 208.738C400.364 206.473 400.933 202.505 402.599 199.331C403.701 197.288 405.256 195.547 407.134 194.252C409.012 192.958 411.16 192.147 413.4 191.887C417.12 191.497 420.952 192.651 424.505 191.699C427.185 191.006 429.531 189.203 432.238 188.655C437.527 187.616 442.441 191.54 446.273 195.479" fill="#263238"/>
<path d="M479.618 241.214C479.966 240.517 480.115 239.731 480.048 238.948C479.877 237.899 479.43 236.919 478.756 236.116C478.083 235.314 477.208 234.722 476.231 234.404C474.873 233.905 473.481 233.514 472.066 233.235C470.377 232.917 468.773 232.228 467.36 231.215C466.605 230.581 465.995 229.782 465.572 228.874C465.15 227.966 464.926 226.972 464.917 225.964C464.896 223.901 464.994 221.84 465.208 219.789C465.263 218.776 465.212 217.76 465.055 216.759C464.873 215.824 464.494 214.942 463.945 214.177C462.702 212.847 461.124 211.907 459.392 211.464C457.767 210.981 456.208 210.283 454.755 209.387C453.49 208.599 452.34 207.628 451.34 206.501C449.879 204.887 448.746 202.983 448.008 200.904C447.798 200.347 447.635 199.773 447.522 199.187C447.439 198.783 447.411 198.581 447.439 198.566C447.467 198.552 447.689 199.389 448.258 200.803C449.28 203.267 450.835 205.453 452.802 207.192C454.769 208.931 457.095 210.176 459.6 210.83C461.46 211.287 463.156 212.288 464.486 213.715C465.113 214.566 465.549 215.552 465.763 216.601C465.93 217.659 465.986 218.733 465.93 219.803C465.723 221.831 465.621 223.868 465.625 225.906C465.623 226.816 465.815 227.714 466.187 228.537C466.559 229.361 467.102 230.088 467.776 230.667C469.107 231.628 470.615 232.291 472.205 232.615C473.624 232.928 475.016 233.357 476.37 233.899C477.534 234.362 478.553 235.151 479.313 236.178C479.864 236.969 480.195 237.903 480.27 238.876C480.307 239.494 480.188 240.111 479.923 240.665C479.798 241.069 479.632 241.228 479.618 241.214Z" fill="#455A64"/>
<path d="M368.296 253.477L367.977 253.318C367.69 253.132 367.448 252.88 367.269 252.582C367.006 251.955 366.904 251.269 366.972 250.589C367.041 249.909 367.277 249.259 367.658 248.701C368.129 247.837 368.834 247.135 369.684 246.682C370.67 246.173 371.685 245.729 372.725 245.354C373.891 244.949 374.971 244.312 375.904 243.479C376.85 242.451 377.482 241.156 377.722 239.756C378.028 238.314 378.125 236.669 378.389 234.995C378.587 233.2 379.233 231.489 380.263 230.032C382.456 227.032 386.065 225.43 388.759 222.602C390.103 221.115 391.113 219.336 391.715 217.394C392.357 215.344 392.822 213.239 393.104 211.104C393.687 206.776 394.284 201.957 397.074 198.004C398.435 196.017 400.477 194.649 402.78 194.18C404.966 193.856 407.19 193.91 409.36 194.339C411.385 194.747 413.453 194.873 415.51 194.714C417.445 194.481 419.232 193.522 420.535 192.016C423.117 189.131 424.589 185.236 427.768 183.245C429.184 182.347 430.763 181.762 432.406 181.526C434.049 181.29 435.721 181.409 437.319 181.874C439.965 182.657 442.215 184.478 443.593 186.952C444.635 188.791 445.2 190.879 445.232 193.012C445.269 194.347 445.067 195.678 444.635 196.936C444.49 197.38 444.299 197.805 444.065 198.206C444.065 198.206 444.232 197.758 444.496 196.893C444.858 195.64 445.013 194.333 444.954 193.026C444.874 190.957 444.292 188.941 443.26 187.169C441.903 184.821 439.724 183.109 437.18 182.393C435.65 181.974 434.053 181.885 432.489 182.133C430.925 182.382 429.427 182.961 428.087 183.836C426.633 184.875 425.392 186.204 424.436 187.746C423.401 189.424 422.26 191.029 421.021 192.55C420.324 193.34 419.508 194.008 418.605 194.527C417.663 195.027 416.643 195.354 415.593 195.493C413.477 195.662 411.348 195.54 409.263 195.133C407.171 194.714 405.028 194.656 402.918 194.96C400.795 195.406 398.914 196.675 397.657 198.509C396.392 200.368 395.474 202.458 394.95 204.669C394.45 206.848 394.065 209.054 393.798 211.277C393.523 213.451 393.058 215.595 392.41 217.683C391.772 219.723 390.7 221.587 389.272 223.136C386.426 226.022 382.859 227.637 380.776 230.48C379.801 231.847 379.179 233.451 378.972 235.14C378.708 236.784 378.597 238.4 378.25 239.93C377.987 241.428 377.29 242.808 376.251 243.883C375.269 244.746 374.131 245.398 372.905 245.801C371.872 246.155 370.862 246.574 369.879 247.057C369.077 247.47 368.403 248.11 367.935 248.903C367.567 249.424 367.329 250.031 367.242 250.67C367.154 251.31 367.221 251.962 367.435 252.568C367.664 252.925 367.956 253.233 368.296 253.477Z" fill="#455A64"/>
<path d="M321.916 388.776L355.441 385.588C355.441 385.588 376.07 329.105 401.503 315.413L417.981 345.321L382.706 414.183H313.85L321.916 388.776Z" fill="#B0BEC5"/>
<path opacity="0.3" d="M321.916 388.776L355.441 385.588C355.441 385.588 376.07 329.105 401.503 315.413L417.981 345.321L382.706 414.183H313.85L321.916 388.776Z" fill="black"/>
<path d="M335.159 404.646C336.815 400.758 338.922 397.095 341.434 393.739C339.755 397.615 337.65 401.275 335.159 404.646Z" fill="#FAFAFA"/>
<path d="M358.912 403.968C356.002 401.008 353.439 397.7 351.277 394.114C352.827 395.491 354.203 397.067 355.372 398.803C356.74 400.377 357.928 402.11 358.912 403.968Z" fill="#FAFAFA"/>
<path d="M363.035 391.027C362.553 387.998 362.553 384.908 363.035 381.88C363.516 384.908 363.516 387.998 363.035 391.027Z" fill="#FAFAFA"/>
<path d="M351.235 411.211C350.065 410.872 348.973 410.287 348.028 409.494C346.362 408.354 345.113 407.301 345.252 407.128C346.418 407.484 347.508 408.072 348.458 408.859C350.041 409.984 351.346 411.038 351.235 411.211Z" fill="#FAFAFA"/>
<path d="M370.49 359.301C369.94 361.48 369.162 363.589 368.171 365.592C367.397 367.695 366.401 369.703 365.2 371.579C365.734 369.397 366.507 367.287 367.505 365.289C368.287 363.186 369.288 361.178 370.49 359.301Z" fill="#FAFAFA"/>
<path d="M384.08 336.419C384.191 336.578 382.997 337.732 381.401 339.002C380.493 339.865 379.432 340.536 378.277 340.979C378.166 340.805 379.36 339.651 380.957 338.396C381.861 337.527 382.923 336.855 384.08 336.419Z" fill="#FAFAFA"/>
<path d="M434.223 409.653L451.52 337.069C452.967 330.979 456.591 325.69 461.656 322.279C466.72 318.867 472.845 317.588 478.785 318.703C484.887 319.85 490.316 323.429 493.915 328.676C497.515 333.923 499 340.424 498.054 346.793L487.475 417.732C486.212 424.992 482.803 431.663 477.723 436.816C472.642 441.97 466.142 445.35 459.128 446.486L445.384 448.707L434.223 409.653Z" fill="#B0BEC5"/>
<path d="M488.725 314.014C486.92 312.479 484.81 311.38 482.547 310.797C480.099 310.205 477.554 310.205 475.106 310.797C472.126 311.579 469.358 313.059 467.013 315.125C461.946 319.54 459.197 325.224 457.295 329.292C456.365 331.327 455.657 333 455.157 334.154C454.927 334.771 454.644 335.365 454.311 335.929C454.447 335.286 454.642 334.658 454.894 334.053C455.324 332.856 455.949 331.168 456.823 329.061C457.849 326.618 459.036 324.251 460.377 321.978C462.043 319.184 464.118 316.677 466.527 314.548C468.948 312.386 471.825 310.848 474.926 310.061C477.47 309.459 480.115 309.493 482.644 310.162C484.343 310.615 485.937 311.415 487.336 312.513C487.709 312.815 488.058 313.148 488.378 313.509C488.627 313.87 488.739 313.999 488.725 314.014Z" fill="#263238"/>
<path d="M390.758 330.346C390.62 330.59 390.457 330.817 390.272 331.024L388.8 332.87C387.509 334.472 385.691 336.809 383.608 339.824C378.074 347.626 374.06 356.478 371.794 365.88C369.393 376.946 369.268 387.305 368.865 394.735C368.685 398.457 368.518 401.472 368.366 403.55C368.282 404.531 368.213 405.324 368.157 405.945C368.14 406.226 368.103 406.506 368.046 406.782C368.007 406.504 368.007 406.222 368.046 405.945C368.046 405.31 368.046 404.502 368.116 403.535C368.116 401.357 368.268 398.37 368.379 394.72C368.657 387.305 368.685 376.903 371.156 365.721C373.425 356.227 377.54 347.315 383.247 339.536C385.399 336.535 387.287 334.227 388.634 332.683C389.3 331.904 389.855 331.327 390.216 330.937C390.379 330.723 390.56 330.525 390.758 330.346Z" fill="#263238"/>
<path d="M501.566 330.187C499.664 317.202 492.778 314.1 485.629 310.061C483.297 308.733 472.038 305.733 463.112 303.467C462.251 297.855 460.724 287.785 460.335 285.664C459.863 282.678 414.857 290.137 414.288 291.262C413.913 291.998 412.9 303.655 412.22 311.46L401.447 315.37L387.44 333.952L380.124 344.744C375.813 350.969 372.732 358.021 371.059 365.49C369.487 373.764 368.812 382.194 369.046 390.623L366.866 438.233L461.099 465.905L468.318 417.631L492.612 383.265C494.68 369.371 503.898 346.143 501.566 330.187Z" fill="#B0BEC5"/>
<path d="M421.201 312.917C420.872 311.845 420.663 310.736 420.577 309.614C420.285 307.565 419.924 304.723 419.577 301.578C419.411 300.019 419.258 298.533 419.105 297.134C418.962 295.918 418.879 294.695 418.855 293.469C418.843 292.604 419.079 291.755 419.536 291.031C419.897 290.541 420.202 290.411 420.23 290.44C420.257 290.469 420.021 290.699 419.772 291.19C419.457 291.903 419.319 292.687 419.369 293.469C419.369 294.479 419.619 295.691 419.772 297.062C419.924 298.432 420.105 299.947 420.299 301.491C420.646 304.636 420.924 307.493 421.09 309.556C421.251 310.668 421.289 311.796 421.201 312.917Z" fill="#263238"/>
<path d="M433.21 309.974C432.742 309.018 432.405 307.998 432.21 306.944C430.954 301.949 430.485 296.774 430.822 291.623C430.831 290.553 430.981 289.49 431.266 288.463C431.488 288.463 431.086 293.325 431.627 299.269C432.168 305.213 433.432 309.917 433.21 309.974Z" fill="#263238"/>
<path d="M455.546 306.54C455.83 302.953 455.742 299.345 455.282 295.778C454.574 292.252 453.484 288.82 452.034 285.549C452.732 286.352 453.29 287.274 453.686 288.275C455.899 292.967 456.775 298.218 456.212 303.41C456.148 304.483 455.923 305.539 455.546 306.54Z" fill="#263238"/>
<path d="M391.688 349.043C393.833 344.794 396.622 340.931 399.948 337.603C397.375 341.554 394.619 345.372 391.688 349.043Z" fill="#FAFAFA"/>
<path d="M412.83 331.067C410.137 328.254 407.804 325.093 405.889 321.66C407.302 322.99 408.556 324.492 409.624 326.133C410.888 327.631 411.965 329.289 412.83 331.067Z" fill="#FAFAFA"/>
<path d="M434.987 319.843C433.631 321.515 432.15 323.073 430.558 324.503C429.137 326.116 427.601 327.616 425.963 328.989C427.08 327.113 428.461 325.421 430.058 323.969C431.489 322.34 433.151 320.949 434.987 319.843Z" fill="#FAFAFA"/>
<path d="M428.767 306.108C427.475 305.403 426.306 304.476 425.311 303.366C424.15 302.435 423.142 301.314 422.326 300.048C423.616 300.769 424.788 301.7 425.796 302.804C426.953 303.729 427.957 304.845 428.767 306.108Z" fill="#FAFAFA"/>
<path d="M448.189 295.345C446.707 296.065 445.13 296.552 443.51 296.788C441.945 297.258 440.322 297.491 438.693 297.48C440.172 296.766 441.743 296.28 443.358 296.037C444.928 295.567 446.555 295.334 448.189 295.345Z" fill="#FAFAFA"/>
<path d="M452.076 327.301C451.63 325.664 451.424 323.967 451.465 322.266C451.265 320.582 451.303 318.876 451.576 317.202C452.021 318.839 452.227 320.537 452.187 322.237C452.386 323.922 452.348 325.628 452.076 327.301Z" fill="#FAFAFA"/>
<path d="M444.996 342.609C443.967 340.791 443.147 338.854 442.552 336.838C441.747 334.88 441.16 332.832 440.803 330.735C442.629 334.532 444.027 338.536 444.968 342.667L444.996 342.609Z" fill="#FAFAFA"/>
<path d="M425.755 353.501C424.649 351.577 423.755 349.53 423.089 347.399C422.189 345.355 421.519 343.21 421.09 341.007C422.188 342.941 423.081 344.992 423.756 347.125C424.645 349.168 425.315 351.306 425.755 353.501Z" fill="#FAFAFA"/>
<path d="M407.652 365.779C406.37 361.819 405.559 357.71 405.237 353.545C405.984 355.488 406.506 357.518 406.792 359.59C407.312 361.611 407.6 363.688 407.652 365.779Z" fill="#FAFAFA"/>
<path d="M386.135 366.27C383.995 362.823 382.262 359.123 380.971 355.247C383.11 358.693 384.844 362.394 386.135 366.27Z" fill="#FAFAFA"/>
<path d="M385.677 380.61C383.914 381.914 382.025 383.021 380.041 383.914C378.152 385.024 376.15 385.91 374.071 386.554C375.831 385.235 377.726 384.122 379.721 383.236C381.606 382.133 383.604 381.252 385.677 380.61Z" fill="#FAFAFA"/>
<path d="M385.941 403.29C384.998 401.667 384.335 399.885 383.983 398.024C383.399 396.237 383.121 394.357 383.164 392.47C383.83 394.205 384.337 396.002 384.677 397.837C385.261 399.609 385.684 401.435 385.941 403.29Z" fill="#FAFAFA"/>
<path d="M381.484 419.218C379.839 418.135 378.32 416.857 376.959 415.409C375.441 414.151 374.083 412.696 372.919 411.081C374.565 412.164 376.083 413.442 377.445 414.89C378.963 416.148 380.32 417.603 381.484 419.218Z" fill="#FAFAFA"/>
<path d="M409.832 408.34C409.832 408.556 406.694 409.508 402.974 411.225C399.254 412.942 396.422 414.702 396.297 414.515C398.192 412.82 400.352 411.473 402.683 410.533C404.926 409.377 407.345 408.635 409.832 408.34Z" fill="#FAFAFA"/>
<path d="M401.544 400.448C400.65 398.903 399.963 397.238 399.503 395.499C398.81 393.849 398.343 392.105 398.115 390.32C399.006 391.86 399.688 393.52 400.142 395.254C400.845 396.907 401.317 398.656 401.544 400.448Z" fill="#FAFAFA"/>
<path d="M418.356 380.942C417.308 383.385 416.039 385.718 414.566 387.911C413.296 390.26 411.818 392.482 410.151 394.547C412.478 389.783 415.225 385.252 418.356 381.014V380.942Z" fill="#FAFAFA"/>
<path d="M436.43 382.803C434.602 380.856 433.046 378.651 431.807 376.253C430.362 373.988 429.222 371.526 428.42 368.939C428.615 368.852 430.225 372.055 432.432 375.878C434.639 379.702 436.597 382.688 436.43 382.803Z" fill="#FAFAFA"/>
<path d="M447.217 364.25C445.533 364.935 443.736 365.269 441.928 365.231C440.136 365.449 438.321 365.302 436.583 364.798C438.345 364.554 440.122 364.448 441.9 364.481C443.665 364.271 445.441 364.194 447.217 364.25Z" fill="#FAFAFA"/>
<path d="M472.941 343.172C468.535 345.925 463.887 348.234 459.058 350.068C463.472 347.33 468.119 345.021 472.941 343.172Z" fill="#FAFAFA"/>
<path d="M474.648 329.754C476.064 325.697 477.927 321.824 480.201 318.212C479.614 320.282 478.794 322.272 477.758 324.142C476.93 326.129 475.887 328.012 474.648 329.754Z" fill="#FAFAFA"/>
<path d="M490.974 340.286C490.12 338.153 489.414 335.959 488.864 333.722C488.09 331.559 487.468 329.341 487.003 327.085C489.079 331.202 490.424 335.674 490.974 340.286Z" fill="#FAFAFA"/>
<path d="M493.542 354.252C491.634 355.335 489.579 356.113 487.448 356.56C485.374 357.246 483.21 357.591 481.034 357.584C483.071 356.855 485.153 356.271 487.267 355.839C489.322 355.162 491.418 354.632 493.542 354.252Z" fill="#FAFAFA"/>
<path d="M465.555 371.305C465.347 371.305 465.944 367.756 466.111 363.384C466.277 359.013 466 355.464 466.208 355.435C466.849 358.038 467.06 360.736 466.832 363.413C466.846 366.1 466.414 368.77 465.555 371.305Z" fill="#FAFAFA"/>
<path d="M459.975 388.863C456.241 385.788 453.167 381.935 450.951 377.552C451.132 377.436 452.964 380.105 455.463 383.222C457.062 385.018 458.568 386.901 459.975 388.863Z" fill="#FAFAFA"/>
<path d="M488.031 385.155C486.213 386.343 484.271 387.311 482.242 388.04C480.304 389.01 478.27 389.755 476.175 390.262C479.933 388.097 483.908 386.37 488.031 385.112V385.155Z" fill="#FAFAFA"/>
<path d="M477.98 418.194C477.559 412.91 477.61 407.597 478.133 402.323C478.572 407.606 478.521 412.921 477.98 418.194Z" fill="#FAFAFA"/>
<path d="M456.449 416.289C456.799 410.769 458.102 405.359 460.294 400.318C460.488 400.39 459.433 403.896 458.378 408.296C457.323 412.697 456.657 416.332 456.449 416.289Z" fill="#FAFAFA"/>
<path d="M457.434 424.96C457.434 425.176 453.991 425.523 449.771 426.258C445.551 426.994 442.164 427.802 442.108 427.586C444.516 426.535 447.053 425.836 449.646 425.508C452.204 424.943 454.826 424.759 457.434 424.96Z" fill="#FAFAFA"/>
<path d="M433.612 419.405C434.819 417.591 436.216 415.922 437.777 414.428C439.152 412.766 440.708 411.275 442.414 409.984C441.207 411.799 439.81 413.468 438.249 414.962C436.87 416.62 435.314 418.111 433.612 419.405Z" fill="#FAFAFA"/>
<path d="M418.189 434.944C417.454 433.105 416.828 431.221 416.315 429.303C415.562 427.468 414.913 425.589 414.371 423.676C416.573 427.019 417.89 430.905 418.189 434.944Z" fill="#FAFAFA"/>
<path d="M443.052 443.917C438.318 442.286 433.747 440.18 429.406 437.627C431.8 438.329 434.124 439.266 436.347 440.426C438.681 441.372 440.926 442.541 443.052 443.917Z" fill="#FAFAFA"/>
<path d="M399.684 441.306C399.879 439.491 400.318 437.714 400.989 436.026C401.428 434.262 402.096 432.568 402.974 430.991C402.778 432.805 402.339 434.583 401.669 436.271C401.22 438.032 400.552 439.724 399.684 441.306Z" fill="#FAFAFA"/>
<path d="M428.281 446.341C428.281 446.558 424.297 445.894 419.383 445.634C414.469 445.375 410.484 445.634 410.47 445.346C413.419 444.751 416.434 444.595 419.425 444.884C422.429 444.924 425.412 445.415 428.281 446.341Z" fill="#FAFAFA"/>
<path d="M434.223 403.795C434.197 403.604 434.197 403.409 434.223 403.218C434.22 402.665 434.299 402.115 434.459 401.588C434.675 400.698 435.212 399.928 435.958 399.438C436.982 398.823 438.187 398.617 439.346 398.861L439.068 399.034C440.581 393.494 443.01 385.415 445.44 376.354C447.717 367.871 449.257 360.066 450.326 354.396C450.854 351.669 451.27 349.404 451.604 347.687C451.729 346.862 451.91 346.048 452.145 345.249C452.128 346.087 452.04 346.923 451.881 347.745C451.659 349.346 451.298 351.655 450.826 354.497C449.623 361.928 448.057 369.291 446.134 376.556C443.705 385.631 441.192 393.682 439.526 399.178L439.457 399.395H439.248C438.2 399.146 437.101 399.3 436.153 399.828C435.464 400.255 434.946 400.926 434.695 401.718C434.237 402.987 434.32 403.81 434.223 403.795Z" fill="#263238"/>
<path d="M465.347 423.864C465.236 423.864 464.375 421.959 462.571 419.045C457.944 411.437 451.419 405.274 443.691 401.213C440.734 399.669 438.776 398.962 438.818 398.832C439.293 398.91 439.758 399.041 440.206 399.222C441.462 399.645 442.691 400.151 443.885 400.737C451.867 404.593 458.53 410.883 462.987 418.771C463.658 419.952 464.256 421.176 464.778 422.435C465.04 422.876 465.233 423.359 465.347 423.864Z" fill="#263238"/>
<g opacity="0.2">
<path d="M439.651 397.779C444.636 397.909 449.571 398.838 454.283 400.534C459.267 402.468 463.875 406.19 465.708 411.384C466.005 411.97 466.138 412.631 466.092 413.292C466.045 413.952 465.821 414.586 465.444 415.121C465.088 415.438 464.655 415.648 464.193 415.727C463.73 415.806 463.255 415.751 462.82 415.568C461.952 415.19 461.167 414.63 460.516 413.923C457.462 411.038 454.283 408.383 451.132 405.555C447.98 402.727 443.371 399.784 439.262 399.106" fill="black"/>
</g>
<path d="M429.642 388.574C429.217 388.923 428.75 389.214 428.254 389.44C426.887 390.135 425.46 390.696 423.992 391.113C419.107 392.562 413.939 392.626 409.023 391.299C404.107 389.972 399.622 387.303 396.033 383.568C394.949 382.455 393.964 381.243 393.09 379.947C392.743 379.507 392.454 379.022 392.229 378.504C392.34 378.417 393.617 380.524 396.394 383.236C399.999 386.776 404.407 389.311 409.207 390.608C414.008 391.904 419.045 391.919 423.853 390.652C427.476 389.642 429.572 388.43 429.642 388.574Z" fill="#263238"/>
<g opacity="0.2">
<path d="M392.909 379.572C395.255 384.852 397.99 390.176 402.433 393.725C404.889 395.93 407.957 397.264 411.192 397.534C415.829 397.62 419.813 394.331 423.353 391.214C411.886 393.09 398.976 387.68 392.909 379.572Z" fill="black"/>
</g>
<path d="M444.246 308.878C444.024 308.878 444.246 303.915 443.718 297.87C443.191 291.825 442.011 287.02 442.219 286.963C442.677 287.945 443 288.989 443.177 290.064C443.777 292.607 444.194 295.191 444.426 297.798C444.674 300.405 444.739 303.028 444.621 305.646C444.633 306.736 444.507 307.822 444.246 308.878Z" fill="#263238"/>
<path d="M279.575 501.944C279.575 501.944 264.485 505.335 251.019 503.228C238.386 501.266 210.108 503.3 210.122 520.541C210.122 539.83 247.84 535.069 262.541 532.011C277.242 528.952 291.902 526.24 291.902 526.24L279.575 501.944Z" fill="#B0BEC5"/>
<path d="M245.702 526.658C244.872 524.494 244.263 522.246 243.883 519.949C243.28 517.703 242.907 515.396 242.773 513.068C243.584 515.234 244.175 517.482 244.536 519.776C245.159 522.021 245.55 524.328 245.702 526.658Z" fill="#263238"/>
<path d="M250.852 526.918C249.761 522.374 249.147 517.72 249.02 513.039C249.682 515.278 250.11 517.586 250.297 519.921C250.716 522.227 250.902 524.572 250.852 526.918Z" fill="#263238"/>
<path d="M255.822 524.898C255.24 522.944 254.886 520.924 254.767 518.882C254.407 516.871 254.29 514.82 254.42 512.779C255.353 516.746 255.819 520.815 255.808 524.898H255.822Z" fill="#263238"/>
<path d="M263.624 522.95C262.658 521.378 262.002 519.623 261.694 517.785C261.152 516.001 260.964 514.122 261.139 512.26C261.67 514.008 262.087 515.791 262.389 517.598C262.922 519.349 263.335 521.138 263.624 522.95Z" fill="#263238"/>
<path d="M265.359 515.823C266.005 515.668 266.67 515.619 267.331 515.679C269.138 515.744 270.924 516.109 272.62 516.761C273.206 516.978 273.758 517.284 274.258 517.67C274.552 517.893 274.795 518.181 274.97 518.512C275.145 518.844 275.248 519.211 275.271 519.589C275.24 520.005 275.123 520.409 274.927 520.773C274.731 521.137 274.461 521.453 274.137 521.698C273.812 521.944 273.44 522.113 273.046 522.195C272.653 522.276 272.247 522.268 271.856 522.171C270.262 521.718 268.871 520.696 267.928 519.286C266.36 517.185 265.463 514.628 265.361 511.972C265.259 509.316 265.957 506.693 267.358 504.469C267.642 504.111 268.033 503.862 268.469 503.762C268.696 503.732 268.927 503.753 269.145 503.826C269.363 503.898 269.564 504.019 269.732 504.18C270.267 504.751 270.6 505.494 270.676 506.287C270.847 507.591 270.782 508.917 270.482 510.197C270.067 512.052 269.185 513.76 267.928 515.145C267.595 515.523 267.228 515.867 266.831 516.169C266.698 516.286 266.548 516.379 266.387 516.444C266.387 516.444 266.914 515.953 267.775 515.001C268.899 513.591 269.676 511.917 270.038 510.124C270.288 508.905 270.321 507.648 270.135 506.417C270.064 505.778 269.796 505.181 269.371 504.714C269.263 504.621 269.137 504.552 269.001 504.515C268.865 504.477 268.723 504.47 268.585 504.494C268.446 504.519 268.314 504.575 268.199 504.658C268.083 504.74 267.985 504.848 267.914 504.974C266.646 507.081 266.027 509.54 266.138 512.022C266.25 514.504 267.087 516.892 268.538 518.867C269.367 520.159 270.605 521.108 272.037 521.551C272.333 521.631 272.643 521.645 272.945 521.592C273.247 521.539 273.535 521.42 273.789 521.243C274.044 521.066 274.259 520.834 274.421 520.564C274.584 520.294 274.689 519.991 274.73 519.675C274.707 519.391 274.626 519.115 274.492 518.866C274.358 518.617 274.174 518.401 273.952 518.233C273.513 517.867 273.021 517.575 272.495 517.367C270.855 516.691 269.129 516.263 267.372 516.097C265.998 515.852 265.359 515.881 265.359 515.823Z" fill="#263238"/>
<path d="M290.417 523.686L290.042 523.816L288.904 524.104L284.531 525.143C280.727 526.009 275.202 527.235 268.344 528.606C261.486 529.976 253.296 531.491 244.106 532.833C239.294 533.654 234.409 533.911 229.543 533.598C226.953 533.417 224.393 532.908 221.922 532.083C220.652 531.635 219.425 531.065 218.257 530.38C217.036 529.701 215.949 528.791 215.05 527.697C214.547 527.216 214.108 526.668 213.745 526.067C213.037 524.801 212.602 523.391 212.47 521.934C212.338 520.477 212.513 519.007 212.982 517.627C213.89 514.962 215.579 512.661 217.813 511.048C219.915 509.509 222.232 508.317 224.684 507.513C225.892 507.152 227.058 506.72 228.252 506.445C229.446 506.171 230.626 505.868 231.806 505.695C241.26 504.151 249.853 504.931 257.016 504.931C260.598 505.003 263.832 504.931 266.664 504.729C269.085 504.547 271.495 504.229 273.883 503.776L276.493 503.199L278.367 502.651L279.519 502.319C279.649 502.271 279.784 502.242 279.922 502.233C279.922 502.233 279.797 502.305 279.547 502.391L278.409 502.795L276.548 503.416L273.952 504.065C271.554 504.568 269.13 504.929 266.692 505.147C263.846 505.363 260.598 505.508 256.974 505.464C249.811 505.537 241.218 504.801 231.889 506.373C230.723 506.546 229.571 506.878 228.391 507.138C227.211 507.398 226.072 507.845 224.879 508.191C222.495 508.975 220.242 510.138 218.201 511.639C216.092 513.166 214.495 515.34 213.634 517.857C213.204 519.134 213.043 520.492 213.163 521.839C213.283 523.185 213.68 524.49 214.328 525.663C214.66 526.195 215.056 526.68 215.508 527.105C216.356 528.103 217.367 528.938 218.493 529.572C219.616 530.234 220.796 530.785 222.019 531.217C224.438 532.013 226.941 532.498 229.474 532.66C234.292 532.975 239.129 532.738 243.897 531.953C253.06 530.698 261.264 529.183 268.122 527.884C274.98 526.586 280.519 525.432 284.35 524.653L288.751 523.758L289.889 523.542C290.073 523.55 290.253 523.599 290.417 523.686Z" fill="#263238"/>
<path d="M235.249 533.049C235.022 531.725 234.896 530.384 234.874 529.039C234.707 526.572 234.43 523.152 233.944 519.416C233.458 515.679 232.875 512.303 232.403 509.865C232.079 508.563 231.861 507.236 231.75 505.897C232.267 507.134 232.653 508.426 232.903 509.749C233.66 512.901 234.249 516.095 234.666 519.315C235.074 522.53 235.315 525.767 235.387 529.01C235.475 530.358 235.429 531.711 235.249 533.049Z" fill="#263238"/>
<path opacity="0.4" d="M274.924 502.781L284.489 527.668L291.902 526.24L277.701 501.944L274.924 502.781Z" fill="black"/>
<path d="M399.531 434.569C397.99 435.088 299.19 406.32 259.237 394.648C254.05 393.129 248.61 392.777 243.282 393.616C237.953 394.454 232.858 396.464 228.335 399.51L227.849 399.828C221.29 404.236 216.201 410.641 213.276 418.168C210.352 425.696 209.735 433.978 211.51 441.883C212.65 446.974 214.751 451.779 217.692 456.019C220.632 460.259 224.354 463.849 228.641 466.583C255.017 483.362 310.754 518.651 312.462 517.959C314.697 517.064 384.33 515.188 384.33 515.188L300.551 452.559L340.407 479.337L399.531 434.612V434.569Z" fill="#263238"/>
<path d="M317.043 403.319L338.047 392.022L358.648 405.44L435.75 408.066L446.856 447.019L335.243 420.127C335.243 420.127 314.933 422.002 313.406 417.241C311.879 412.48 317.043 403.319 317.043 403.319Z" fill="#FFBE9D"/>
<path d="M380.221 465.847L369.837 501.309L371.128 512.115C380.272 521.69 392.461 527.472 405.412 528.377C418.363 529.283 431.188 525.251 441.483 517.035C447.865 511.942 453.03 505.387 456.574 497.879C460.119 490.372 461.948 482.116 461.918 473.753L461.765 436.733L380.221 465.847Z" fill="#263238"/>
<path d="M318.39 466.078C318.278 466.237 306.229 457.104 291.486 445.678C276.743 434.251 264.873 424.845 264.998 424.686C265.123 424.527 277.159 433.645 291.916 445.072C306.673 456.498 318.514 465.905 318.39 466.078Z" fill="#455A64"/>
<path d="M336.631 399.092C333.291 400.599 329.859 401.876 326.358 402.915C322.926 404.179 319.421 405.215 315.863 406.017C319.202 404.507 322.634 403.23 326.136 402.194C329.567 400.928 333.072 399.892 336.631 399.092Z" fill="#EB996E"/>
<path d="M338.199 405.743C337.028 406.089 335.83 406.326 334.618 406.45C332.411 406.825 329.37 407.387 326.039 408.181C322.707 408.974 319.736 409.855 317.584 410.518C316.441 410.948 315.267 411.281 314.072 411.514C315.13 410.901 316.253 410.417 317.418 410.071C320.187 409.05 323.009 408.192 325.872 407.503C328.734 406.822 331.631 406.311 334.548 405.974C335.754 405.763 336.978 405.685 338.199 405.743Z" fill="#EB996E"/>
<path d="M336.436 411.86C332.641 413.034 328.779 413.959 324.872 414.63C321.01 415.554 317.097 416.233 313.156 416.664C316.958 415.498 320.824 414.573 324.734 413.894C328.592 412.972 332.5 412.293 336.436 411.86Z" fill="#EB996E"/>
<path d="M309.199 350.977L328.565 417.227C328.675 417.596 328.888 417.922 329.177 418.164C329.467 418.405 329.819 418.551 330.189 418.583L382.942 422.695C383.41 422.728 383.848 422.944 384.167 423.301C384.487 423.657 384.664 424.127 384.663 424.614V428.033C384.663 428.289 384.614 428.542 384.519 428.777C384.424 429.013 384.284 429.227 384.108 429.405C383.932 429.584 383.724 429.725 383.495 429.818C383.266 429.912 383.021 429.958 382.775 429.952L238.4 427.066C238.031 427.059 237.672 426.937 237.37 426.716C237.068 426.495 236.837 426.185 236.706 425.826L211.33 356.733C211.223 356.449 211.184 356.143 211.214 355.84C211.245 355.537 211.344 355.246 211.504 354.991C211.664 354.736 211.88 354.524 212.135 354.373C212.389 354.221 212.675 354.136 212.968 354.122L307.242 349.548C307.678 349.509 308.113 349.631 308.471 349.892C308.829 350.153 309.087 350.537 309.199 350.977Z" fill="#455A64"/>
<path d="M268.524 379.514C267.817 379.788 267.186 380.24 266.687 380.829C266.188 381.418 265.837 382.126 265.665 382.89C265.601 383.688 265.74 384.49 266.069 385.214C266.398 385.938 266.905 386.56 267.539 387.016C268.3 387.588 269.208 387.913 270.147 387.949C271.086 387.985 272.014 387.731 272.814 387.218C273.616 386.599 274.191 385.714 274.444 384.709C274.696 383.704 274.611 382.64 274.202 381.692C273.564 379.86 270.343 378.576 268.483 379.514" fill="#E0E0E0"/>
<path d="M291.902 526.24L276.632 500.155L388.8 408.787C395.778 402.838 404.314 399.205 413.302 398.356C419.851 397.737 426.45 398.615 432.638 400.928C438.825 403.24 444.451 406.932 449.12 411.743C453.789 416.555 457.389 422.37 459.667 428.78C461.945 435.19 462.846 442.041 462.307 448.852L460.516 471.142L386.135 496.058L291.902 526.24Z" fill="#263238"/>
<path d="M435.75 464.318C435.75 464.318 435.667 464.419 435.458 464.606L434.542 465.385L430.975 468.357L428.379 470.478C427.435 471.257 426.31 471.921 425.158 472.83L421.437 475.484C420.771 475.946 420.049 476.451 419.397 476.927L417.162 478.37C414.121 480.26 410.831 482.424 407.097 484.386C405.251 485.396 403.363 486.492 401.378 487.517L395.172 490.561C385.914 494.968 376.448 498.888 366.811 502.305C346.321 509.648 327.385 514.929 313.822 519.199C310.421 520.238 307.353 521.219 304.66 522.085C301.967 522.95 299.662 523.686 297.719 524.35L293.388 525.792L292.249 526.153C292.119 526.201 291.984 526.235 291.847 526.254L292.221 526.081L293.332 525.648L297.636 524.047C299.496 523.34 301.8 522.604 304.493 521.652C307.187 520.7 310.227 519.719 313.614 518.651C327.149 514.236 346.071 508.884 366.519 501.555C376.764 497.933 386.301 493.894 394.839 489.897L401.031 486.882C403.03 485.872 404.918 484.79 406.764 483.795C410.498 481.861 413.788 479.726 416.842 477.879L419.077 476.509C419.785 476.047 420.466 475.557 421.132 475.066L425.005 472.455C426.157 471.632 427.282 470.925 428.24 470.161L430.863 468.083L434.515 465.198L435.486 464.476L435.75 464.318Z" fill="#455A64"/>
<path d="M438.471 476.509C438.127 476.771 437.748 476.98 437.346 477.129C436.597 477.475 435.5 477.952 434.126 478.471C430.541 479.844 426.866 480.953 423.131 481.789C419.392 482.619 415.602 483.178 411.789 483.463C410.332 483.564 409.138 483.607 408.319 483.607C407.892 483.64 407.463 483.616 407.042 483.535C408.598 483.244 410.169 483.042 411.748 482.929C414.635 482.597 418.689 482.02 422.978 481.053C427.268 480.087 431.183 478.904 433.959 477.98C435.436 477.405 436.943 476.914 438.471 476.509Z" fill="#455A64"/>
<path d="M384.33 413.173C384.455 413.346 360.453 432.953 330.717 456.96C300.981 480.967 276.77 500.328 276.659 500.155C276.548 499.982 300.537 480.39 330.273 456.368C360.008 432.347 384.219 413.014 384.33 413.173Z" fill="#455A64"/>
<path d="M377.805 510.124C372.433 507.152 366.394 508.913 361.244 510.716C357.815 511.913 354.303 513.818 350.777 512.794C348.264 512.058 346.39 509.908 344.46 508.105C340.567 504.384 335.997 501.511 331.019 499.655C326.041 497.799 320.755 496.998 315.474 497.299C312.458 497.449 309.61 498.785 307.506 501.035C302.217 506.994 306.201 514.727 310.935 519.791C319.369 528.7 330.506 534.306 342.461 535.661C352.304 536.728 365.839 535.315 375.779 530.871C381.929 528.13 385.08 520.584 381.859 514.496C380.951 512.656 379.541 511.136 377.805 510.124Z" fill="#B0BEC5"/>
<g opacity="0.4">
<path d="M377.806 514.885C372.419 511.913 366.38 513.674 361.23 515.477C357.801 516.674 354.289 518.579 350.763 517.555C348.25 516.819 346.376 514.669 344.446 512.866C340.554 509.145 335.983 506.272 331.005 504.416C326.027 502.56 320.741 501.759 315.46 502.06C312.444 502.21 309.596 503.546 307.492 505.796C306.427 506.976 305.664 508.415 305.271 509.98C306.29 513.694 308.24 517.06 310.921 519.733C319.355 528.642 330.492 534.249 342.447 535.603C352.29 536.671 365.825 535.257 375.765 530.813C377.53 530.033 379.092 528.83 380.325 527.303C381.557 525.777 382.426 523.969 382.859 522.027C382.546 520.536 381.929 519.133 381.05 517.911C380.171 516.689 379.051 515.677 377.764 514.943L377.806 514.885Z" fill="black"/>
</g>
<path d="M382.942 521.969C382.709 520.786 382.261 519.66 381.623 518.651C380.852 517.507 379.876 516.527 378.749 515.766C377.265 514.723 375.569 514.051 373.794 513.803C369.809 513.313 365.173 515.059 360.036 516.501C357.496 517.208 354.719 518.276 351.707 517.944C350.184 517.739 348.719 517.209 347.403 516.386C346.094 515.538 344.858 514.572 343.711 513.5C339.522 509.364 334.494 506.257 328.996 504.411C326.619 503.572 324.169 502.983 321.68 502.651C319.516 502.327 317.319 502.327 315.155 502.651C313.386 502.929 311.682 503.546 310.13 504.469C308.967 505.169 307.914 506.05 307.006 507.08C305.618 508.884 305.104 510.11 305.021 510.052C305.451 508.909 306.051 507.843 306.798 506.893C307.663 505.759 308.705 504.784 309.88 504.007C311.465 503 313.223 502.323 315.058 502.016C317.267 501.675 319.512 501.675 321.721 502.016C324.255 502.332 326.752 502.907 329.176 503.733C331.852 504.657 334.437 505.846 336.895 507.282C338.205 508.035 339.462 508.884 340.657 509.821C341.864 510.803 342.989 511.87 344.155 512.909C345.271 513.976 346.474 514.942 347.75 515.794C348.979 516.554 350.345 517.045 351.762 517.237C354.539 517.627 357.315 516.617 359.856 515.924C364.978 514.481 369.684 512.794 373.863 513.356C375.478 513.598 377.025 514.192 378.403 515.1C379.781 516.007 380.959 517.208 381.859 518.622C382.332 519.396 382.671 520.251 382.859 521.147C382.914 521.417 382.942 521.693 382.942 521.969Z" fill="#263238"/>
<path d="M382.942 521.969C382.709 520.786 382.261 519.66 381.623 518.651C380.852 517.507 379.876 516.527 378.749 515.766C377.265 514.723 375.569 514.051 373.794 513.803C369.809 513.313 365.173 515.059 360.036 516.501C357.496 517.208 354.719 518.276 351.707 517.944C350.184 517.739 348.719 517.209 347.403 516.386C346.094 515.538 344.858 514.572 343.711 513.5C339.522 509.364 334.494 506.257 328.996 504.411C326.619 503.572 324.169 502.983 321.68 502.651C319.516 502.327 317.319 502.327 315.155 502.651C313.386 502.929 311.682 503.546 310.13 504.469C308.967 505.169 307.914 506.05 307.006 507.08C305.618 508.884 305.104 510.11 305.021 510.052C305.451 508.909 306.051 507.843 306.798 506.893C307.663 505.759 308.705 504.784 309.88 504.007C311.465 503 313.223 502.323 315.058 502.016C317.267 501.675 319.512 501.675 321.721 502.016C324.255 502.332 326.752 502.907 329.176 503.733C331.852 504.657 334.437 505.846 336.895 507.282C338.205 508.035 339.462 508.884 340.657 509.821C341.864 510.803 342.989 511.87 344.155 512.909C345.271 513.976 346.474 514.942 347.75 515.794C348.979 516.554 350.345 517.045 351.762 517.237C354.539 517.627 357.315 516.617 359.856 515.924C364.978 514.481 369.684 512.794 373.863 513.356C375.478 513.598 377.025 514.192 378.403 515.1C379.781 516.007 380.959 517.208 381.859 518.622C382.332 519.396 382.671 520.251 382.859 521.147C382.914 521.417 382.942 521.693 382.942 521.969Z" fill="#263238"/>
<path d="M316.21 520.613C317.057 519.843 317.989 519.179 318.986 518.637C321.291 517.188 323.668 515.869 326.108 514.683C328.548 513.488 331.045 512.424 333.591 511.495C334.626 511.056 335.707 510.741 336.811 510.557C335.843 511.135 334.825 511.618 333.771 512C331.869 512.822 329.259 513.977 326.413 515.362C323.568 516.747 321.055 518.103 319.236 519.098C318.279 519.707 317.265 520.215 316.21 520.613Z" fill="#263238"/>
<path d="M318.112 526.211C321.5 524.092 325.01 522.189 328.621 520.512C332.13 518.615 335.746 516.938 339.449 515.491C336.06 517.61 332.551 519.514 328.94 521.19C325.433 523.094 321.817 524.771 318.112 526.211Z" fill="#263238"/>
<path d="M340.323 528.635C340.212 528.808 334.479 525.259 327.524 520.7C320.569 516.141 315.03 512.289 315.03 512.115C315.03 511.942 320.861 515.491 327.829 520.065C334.798 524.638 340.462 528.462 340.323 528.635Z" fill="#263238"/>
<path d="M343.572 522.835C342.591 522.275 341.662 521.623 340.795 520.887C339.116 519.618 336.783 517.872 334.174 515.996C331.564 514.121 329.19 512.462 327.455 511.264C326.465 510.68 325.535 509.993 324.678 509.216C325.735 509.635 326.745 510.172 327.691 510.817C329.495 511.899 331.952 513.5 334.632 515.376C337.311 517.252 339.546 519.084 341.156 520.469C342.053 521.15 342.864 521.945 343.572 522.835Z" fill="#263238"/>
</svg>
